<svg width="5302" height="1729" xmlns="http://www.w3.org/2000/svg" xmlns:xlink="http://www.w3.org/1999/xlink" xml:space="preserve" overflow="hidden"><defs><clipPath id="clip0"><rect x="1543" y="64" width="5302" height="1729"/></clipPath><clipPath id="clip1"><rect x="1542" y="66" width="2651" height="1727"/></clipPath><clipPath id="clip2"><rect x="4196" y="64" width="2648" height="1729"/></clipPath><clipPath id="clip3"><rect x="4196" y="64" width="2648" height="1729"/></clipPath></defs><g clip-path="url(#clip0)" transform="translate(-1543 -64)"><rect x="1543" y="66" width="2651" height="1727" fill="#FFFFFF"/><g><path d="M2780.59 783.526 2887.59 844.528M2887.59 844.528 2887.59 968.532M2887.59 968.532 2780.59 1029.53M2780.59 1029.53 2674.59 968.532M2674.59 968.532 2674.59 844.528M2674.59 844.528 2780.59 783.526M2780.59 660.522 2994.6 783.526M2994.6 783.526 2994.6 1029.53M2994.6 1029.53 2780.59 1152.54M2780.59 1152.54 2567.58 1029.53M2567.58 1029.53 2567.58 783.526M2567.58 783.526 2780.59 660.522M2780.59 537.518 3100.6 721.524M3100.6 721.524 3100.6 1091.54M3100.6 1091.54 2780.59 1275.54M2780.59 1275.54 2461.58 1091.54M2461.58 1091.54 2461.58 721.524M2461.58 721.524 2780.59 537.518M2780.59 414.514 3207.61 660.522M3207.61 660.522 3207.61 1152.54M3207.61 1152.54 2780.59 1398.55M2780.59 1398.55 2354.58 1152.54M2354.58 1152.54 2354.58 660.522M2354.58 660.522 2780.59 414.514M2780.59 290.51 3313.61 598.52M3313.61 598.52 3313.61 1214.54M3313.61 1214.54 2780.59 1522.55M2780.59 1522.55 2247.57 1214.54M2247.57 1214.54 2247.57 598.52M2247.57 598.52 2780.59 290.51M2780.59 167.5 3420.5 537.518M3420.5 537.518 3420.5 1275.54M3420.5 1275.54 2780.59 1645.5M2780.59 1645.5 2141.5 1275.54M2141.5 1275.54 2141.5 537.518M2141.5 537.518 2780.59 167.5" stroke="#0D0D0D" stroke-width="4.58333" stroke-linejoin="round" stroke-miterlimit="10" fill="none"/></g><g><path d="M2248 599.02 2781.09 414 3207 660.022 3207 1153.04 2781.09 1276 2354.08 1153.04 2248 599.02" stroke="#145F82" stroke-width="18.3333" stroke-linecap="round" stroke-linejoin="round" stroke-miterlimit="10" stroke-opacity="0.301961" fill="none"/></g><g><path d="M2788.25 414C2788.25 418.694 2784.44 422.5 2779.75 422.5 2775.06 422.5 2771.25 418.694 2771.25 414 2771.25 409.306 2775.06 405.5 2779.75 405.5 2784.44 405.5 2788.25 409.306 2788.25 414Z" stroke="#FFFFFF" stroke-width="4.58333" stroke-linejoin="round" stroke-miterlimit="10" fill="#145F82"/><path d="M3215.25 660C3215.25 664.694 3211.44 668.5 3206.75 668.5 3202.06 668.5 3198.25 664.694 3198.25 660 3198.25 655.306 3202.06 651.5 3206.75 651.5 3211.44 651.5 3215.25 655.306 3215.25 660Z" stroke="#FFFFFF" stroke-width="4.58333" stroke-linejoin="round" stroke-miterlimit="10" fill="#145F82"/><path d="M3215.25 1152C3215.25 1156.69 3211.44 1160.5 3206.75 1160.5 3202.06 1160.5 3198.25 1156.69 3198.25 1152 3198.25 1147.31 3202.06 1143.5 3206.75 1143.5 3211.44 1143.5 3215.25 1147.31 3215.25 1152Z" stroke="#FFFFFF" stroke-width="4.58333" stroke-linejoin="round" stroke-miterlimit="10" fill="#145F82"/><path d="M2788.25 1275C2788.25 1279.69 2784.44 1283.5 2779.75 1283.5 2775.06 1283.5 2771.25 1279.69 2771.25 1275 2771.25 1270.31 2775.06 1266.5 2779.75 1266.5 2784.44 1266.5 2788.25 1270.31 2788.25 1275Z" stroke="#FFFFFF" stroke-width="4.58333" stroke-linejoin="round" stroke-miterlimit="10" fill="#145F82"/><path d="M2362.25 1152C2362.25 1156.69 2358.44 1160.5 2353.75 1160.5 2349.06 1160.5 2345.25 1156.69 2345.25 1152 2345.25 1147.31 2349.06 1143.5 2353.75 1143.5 2358.44 1143.5 2362.25 1147.31 2362.25 1152Z" stroke="#FFFFFF" stroke-width="4.58333" stroke-linejoin="round" stroke-miterlimit="10" fill="#145F82"/><path d="M2255.25 598C2255.25 602.694 2251.44 606.5 2246.75 606.5 2242.06 606.5 2238.25 602.694 2238.25 598 2238.25 593.305 2242.06 589.5 2246.75 589.5 2251.44 589.5 2255.25 593.305 2255.25 598Z" stroke="#FFFFFF" stroke-width="4.58333" stroke-linejoin="round" stroke-miterlimit="10" fill="#145F82"/></g><g><path d="M2141 537 2781.09 537 3421 537 3421 1276.04 2781.09 1645 2141 1276.04 2141 537" stroke="#E87331" stroke-width="18.3333" stroke-linecap="round" stroke-linejoin="round" stroke-miterlimit="10" stroke-opacity="0.301961" fill="none"/></g><g><path d="M2788.25 537C2788.25 541.694 2784.44 545.5 2779.75 545.5 2775.06 545.5 2771.25 541.694 2771.25 537 2771.25 532.306 2775.06 528.5 2779.75 528.5 2784.44 528.5 2788.25 532.306 2788.25 537Z" stroke="#FFFFFF" stroke-width="4.58333" stroke-linejoin="round" stroke-miterlimit="10" fill="#E87331"/><path d="M3428.25 537C3428.25 541.694 3424.44 545.5 3419.75 545.5 3415.06 545.5 3411.25 541.694 3411.25 537 3411.25 532.306 3415.06 528.5 3419.75 528.5 3424.44 528.5 3428.25 532.306 3428.25 537Z" stroke="#FFFFFF" stroke-width="4.58333" stroke-linejoin="round" stroke-miterlimit="10" fill="#E87331"/><path d="M3428.25 1275C3428.25 1279.69 3424.44 1283.5 3419.75 1283.5 3415.06 1283.5 3411.25 1279.69 3411.25 1275 3411.25 1270.31 3415.06 1266.5 3419.75 1266.5 3424.44 1266.5 3428.25 1270.31 3428.25 1275Z" stroke="#FFFFFF" stroke-width="4.58333" stroke-linejoin="round" stroke-miterlimit="10" fill="#E87331"/><path d="M2788.25 1645C2788.25 1649.69 2784.44 1653.5 2779.75 1653.5 2775.06 1653.5 2771.25 1649.69 2771.25 1645 2771.25 1640.31 2775.06 1636.5 2779.75 1636.5 2784.44 1636.5 2788.25 1640.31 2788.25 1645Z" stroke="#FFFFFF" stroke-width="4.58333" stroke-linejoin="round" stroke-miterlimit="10" fill="#E87331"/><path d="M2149.25 1275C2149.25 1279.69 2145.44 1283.5 2140.75 1283.5 2136.06 1283.5 2132.25 1279.69 2132.25 1275 2132.25 1270.31 2136.06 1266.5 2140.75 1266.5 2145.44 1266.5 2149.25 1270.31 2149.25 1275Z" stroke="#FFFFFF" stroke-width="4.58333" stroke-linejoin="round" stroke-miterlimit="10" fill="#E87331"/><path d="M2149.25 537C2149.25 541.694 2145.44 545.5 2140.75 545.5 2136.06 545.5 2132.25 541.694 2132.25 537 2132.25 532.306 2136.06 528.5 2140.75 528.5 2145.44 528.5 2149.25 532.306 2149.25 537Z" stroke="#FFFFFF" stroke-width="4.58333" stroke-linejoin="round" stroke-miterlimit="10" fill="#E87331"/></g><g><path d="M2674.09 845.028 2781.09 291 3207 660.022 2887.09 968.032 2781.09 1030 2568 1030 2674.09 845.028" stroke="#186C24" stroke-width="18.3333" stroke-linecap="round" stroke-linejoin="round" stroke-miterlimit="10" stroke-opacity="0.301961" fill="none"/></g><g><path d="M2788.25 290C2788.25 294.694 2784.44 298.5 2779.75 298.5 2775.06 298.5 2771.25 294.694 2771.25 290 2771.25 285.306 2775.06 281.5 2779.75 281.5 2784.44 281.5 2788.25 285.306 2788.25 290Z" stroke="#FFFFFF" stroke-width="4.58333" stroke-linejoin="round" stroke-miterlimit="10" fill="#186C24"/><path d="M3215.25 660C3215.25 664.694 3211.44 668.5 3206.75 668.5 3202.06 668.5 3198.25 664.694 3198.25 660 3198.25 655.306 3202.06 651.5 3206.75 651.5 3211.44 651.5 3215.25 655.306 3215.25 660Z" stroke="#FFFFFF" stroke-width="4.58333" stroke-linejoin="round" stroke-miterlimit="10" fill="#186C24"/><path d="M2895.25 968C2895.25 972.694 2891.44 976.5 2886.75 976.5 2882.06 976.5 2878.25 972.694 2878.25 968 2878.25 963.306 2882.06 959.5 2886.75 959.5 2891.44 959.5 2895.25 963.306 2895.25 968Z" stroke="#FFFFFF" stroke-width="4.58333" stroke-linejoin="round" stroke-miterlimit="10" fill="#186C24"/><path d="M2788.25 1029C2788.25 1033.69 2784.44 1037.5 2779.75 1037.5 2775.06 1037.5 2771.25 1033.69 2771.25 1029 2771.25 1024.31 2775.06 1020.5 2779.75 1020.5 2784.44 1020.5 2788.25 1024.31 2788.25 1029Z" stroke="#FFFFFF" stroke-width="4.58333" stroke-linejoin="round" stroke-miterlimit="10" fill="#186C24"/><path d="M2575.25 1029C2575.25 1033.69 2571.44 1037.5 2566.75 1037.5 2562.06 1037.5 2558.25 1033.69 2558.25 1029 2558.25 1024.31 2562.06 1020.5 2566.75 1020.5 2571.44 1020.5 2575.25 1024.31 2575.25 1029Z" stroke="#FFFFFF" stroke-width="4.58333" stroke-linejoin="round" stroke-miterlimit="10" fill="#186C24"/><path d="M2682.25 844C2682.25 848.694 2678.44 852.5 2673.75 852.5 2669.06 852.5 2665.25 848.694 2665.25 844 2665.25 839.306 2669.06 835.5 2673.75 835.5 2678.44 835.5 2682.25 839.306 2682.25 844Z" stroke="#FFFFFF" stroke-width="4.58333" stroke-linejoin="round" stroke-miterlimit="10" fill="#186C24"/></g><g><path d="M2248 599.02 2781.09 168 3101.1 722.024 3314 1214.04 2781.09 1399 2248 1214.04 2248 599.02" stroke="#0F9ED5" stroke-width="18.3333" stroke-linecap="round" stroke-linejoin="round" stroke-miterlimit="10" stroke-opacity="0.301961" fill="none"/></g><g><path d="M2788.25 167C2788.25 171.694 2784.44 175.499 2779.75 175.499 2775.06 175.499 2771.25 171.694 2771.25 167 2771.25 162.305 2775.06 158.5 2779.75 158.5 2784.44 158.5 2788.25 162.305 2788.25 167Z" stroke="#FFFFFF" stroke-width="4.58333" stroke-linejoin="round" stroke-miterlimit="10" fill="#0F9ED5"/><path d="M3108.25 721C3108.25 725.694 3104.44 729.5 3099.75 729.5 3095.06 729.5 3091.25 725.694 3091.25 721 3091.25 716.306 3095.06 712.5 3099.75 712.5 3104.44 712.5 3108.25 716.306 3108.25 721Z" stroke="#FFFFFF" stroke-width="4.58333" stroke-linejoin="round" stroke-miterlimit="10" fill="#0F9ED5"/><path d="M3322.25 1214C3322.25 1218.69 3318.44 1222.5 3313.75 1222.5 3309.06 1222.5 3305.25 1218.69 3305.25 1214 3305.25 1209.31 3309.06 1205.5 3313.75 1205.5 3318.44 1205.5 3322.25 1209.31 3322.25 1214Z" stroke="#FFFFFF" stroke-width="4.58333" stroke-linejoin="round" stroke-miterlimit="10" fill="#0F9ED5"/><path d="M2788.25 1399C2788.25 1403.69 2784.44 1407.5 2779.75 1407.5 2775.06 1407.5 2771.25 1403.69 2771.25 1399 2771.25 1394.31 2775.06 1390.5 2779.75 1390.5 2784.44 1390.5 2788.25 1394.31 2788.25 1399Z" stroke="#FFFFFF" stroke-width="4.58333" stroke-linejoin="round" stroke-miterlimit="10" fill="#0F9ED5"/><path d="M2255.25 1214C2255.25 1218.69 2251.44 1222.5 2246.75 1222.5 2242.06 1222.5 2238.25 1218.69 2238.25 1214 2238.25 1209.31 2242.06 1205.5 2246.75 1205.5 2251.44 1205.5 2255.25 1209.31 2255.25 1214Z" stroke="#FFFFFF" stroke-width="4.58333" stroke-linejoin="round" stroke-miterlimit="10" fill="#0F9ED5"/><path d="M2255.25 598C2255.25 602.694 2251.44 606.5 2246.75 606.5 2242.06 606.5 2238.25 602.694 2238.25 598 2238.25 593.305 2242.06 589.5 2246.75 589.5 2251.44 589.5 2255.25 593.305 2255.25 598Z" stroke="#FFFFFF" stroke-width="4.58333" stroke-linejoin="round" stroke-miterlimit="10" fill="#0F9ED5"/></g><g><path d="M2461 722.024 2781.09 414 2994.1 783.026 3207 1153 2781.09 1153 2568.08 1030.03 2461 722.024" stroke="#A02B93" stroke-width="18.3333" stroke-linecap="round" stroke-linejoin="round" stroke-miterlimit="10" stroke-opacity="0.301961" fill="none"/></g><g><path d="M2788.25 414C2788.25 418.694 2784.44 422.5 2779.75 422.5 2775.06 422.5 2771.25 418.694 2771.25 414 2771.25 409.306 2775.06 405.5 2779.75 405.5 2784.44 405.5 2788.25 409.306 2788.25 414Z" stroke="#FFFFFF" stroke-width="4.58333" stroke-linejoin="round" stroke-miterlimit="10" fill="#A02B93"/><path d="M3002.25 783C3002.25 787.694 2998.44 791.499 2993.75 791.499 2989.06 791.499 2985.25 787.694 2985.25 783 2985.25 778.305 2989.06 774.5 2993.75 774.5 2998.44 774.5 3002.25 778.305 3002.25 783Z" stroke="#FFFFFF" stroke-width="4.58333" stroke-linejoin="round" stroke-miterlimit="10" fill="#A02B93"/><path d="M3215.25 1152C3215.25 1156.69 3211.44 1160.5 3206.75 1160.5 3202.06 1160.5 3198.25 1156.69 3198.25 1152 3198.25 1147.31 3202.06 1143.5 3206.75 1143.5 3211.44 1143.5 3215.25 1147.31 3215.25 1152Z" stroke="#FFFFFF" stroke-width="4.58333" stroke-linejoin="round" stroke-miterlimit="10" fill="#A02B93"/><path d="M2788.25 1152C2788.25 1156.69 2784.44 1160.5 2779.75 1160.5 2775.06 1160.5 2771.25 1156.69 2771.25 1152 2771.25 1147.31 2775.06 1143.5 2779.75 1143.5 2784.44 1143.5 2788.25 1147.31 2788.25 1152Z" stroke="#FFFFFF" stroke-width="4.58333" stroke-linejoin="round" stroke-miterlimit="10" fill="#A02B93"/><path d="M2575.25 1029C2575.25 1033.69 2571.44 1037.5 2566.75 1037.5 2562.06 1037.5 2558.25 1033.69 2558.25 1029 2558.25 1024.31 2562.06 1020.5 2566.75 1020.5 2571.44 1020.5 2575.25 1024.31 2575.25 1029Z" stroke="#FFFFFF" stroke-width="4.58333" stroke-linejoin="round" stroke-miterlimit="10" fill="#A02B93"/><path d="M2469.25 721C2469.25 725.694 2465.44 729.5 2460.75 729.5 2456.06 729.5 2452.25 725.694 2452.25 721 2452.25 716.306 2456.06 712.5 2460.75 712.5 2465.44 712.5 2469.25 716.306 2469.25 721Z" stroke="#FFFFFF" stroke-width="4.58333" stroke-linejoin="round" stroke-miterlimit="10" fill="#A02B93"/></g><g><path d="M2354 660 2781.09 907.03 3101.1 722.024 3314 1214.04 2781.09 1399 2354 1153.04 2354 660" stroke="#4EA72E" stroke-width="18.3333" stroke-linecap="round" stroke-linejoin="round" stroke-miterlimit="10" stroke-opacity="0.301961" fill="none"/></g><g><path d="M2788.25 906C2788.25 910.694 2784.44 914.5 2779.75 914.5 2775.06 914.5 2771.25 910.694 2771.25 906 2771.25 901.305 2775.06 897.5 2779.75 897.5 2784.44 897.5 2788.25 901.305 2788.25 906Z" stroke="#FFFFFF" stroke-width="4.58333" stroke-linejoin="round" stroke-miterlimit="10" fill="#4EA72E"/><path d="M3108.25 721C3108.25 725.694 3104.44 729.5 3099.75 729.5 3095.06 729.5 3091.25 725.694 3091.25 721 3091.25 716.306 3095.06 712.5 3099.75 712.5 3104.44 712.5 3108.25 716.306 3108.25 721Z" stroke="#FFFFFF" stroke-width="4.58333" stroke-linejoin="round" stroke-miterlimit="10" fill="#4EA72E"/><path d="M3322.25 1214C3322.25 1218.69 3318.44 1222.5 3313.75 1222.5 3309.06 1222.5 3305.25 1218.69 3305.25 1214 3305.25 1209.31 3309.06 1205.5 3313.75 1205.5 3318.44 1205.5 3322.25 1209.31 3322.25 1214Z" stroke="#FFFFFF" stroke-width="4.58333" stroke-linejoin="round" stroke-miterlimit="10" fill="#4EA72E"/><path d="M2788.25 1399C2788.25 1403.69 2784.44 1407.5 2779.75 1407.5 2775.06 1407.5 2771.25 1403.69 2771.25 1399 2771.25 1394.31 2775.06 1390.5 2779.75 1390.5 2784.44 1390.5 2788.25 1394.31 2788.25 1399Z" stroke="#FFFFFF" stroke-width="4.58333" stroke-linejoin="round" stroke-miterlimit="10" fill="#4EA72E"/><path d="M2362.25 1152C2362.25 1156.69 2358.44 1160.5 2353.75 1160.5 2349.06 1160.5 2345.25 1156.69 2345.25 1152 2345.25 1147.31 2349.06 1143.5 2353.75 1143.5 2358.44 1143.5 2362.25 1147.31 2362.25 1152Z" stroke="#FFFFFF" stroke-width="4.58333" stroke-linejoin="round" stroke-miterlimit="10" fill="#4EA72E"/><path d="M2362.25 660C2362.25 664.694 2358.44 668.5 2353.75 668.5 2349.06 668.5 2345.25 664.694 2345.25 660 2345.25 655.306 2349.06 651.5 2353.75 651.5 2358.44 651.5 2362.25 655.306 2362.25 660Z" stroke="#FFFFFF" stroke-width="4.58333" stroke-linejoin="round" stroke-miterlimit="10" fill="#4EA72E"/></g><g><path d="M2568.08 783.026 2781.09 291 3101 722.024 3101 1091.04 2781.09 1276 2461 1091.04 2568.08 783.026" stroke="#0C394E" stroke-width="18.3333" stroke-linecap="round" stroke-linejoin="round" stroke-miterlimit="10" stroke-opacity="0.301961" fill="none"/></g><g><path d="M2788.25 290C2788.25 294.694 2784.44 298.5 2779.75 298.5 2775.06 298.5 2771.25 294.694 2771.25 290 2771.25 285.306 2775.06 281.5 2779.75 281.5 2784.44 281.5 2788.25 285.306 2788.25 290Z" stroke="#FFFFFF" stroke-width="4.58333" stroke-linejoin="round" stroke-miterlimit="10" fill="#0C394E"/><path d="M3108.25 721C3108.25 725.694 3104.44 729.5 3099.75 729.5 3095.06 729.5 3091.25 725.694 3091.25 721 3091.25 716.306 3095.06 712.5 3099.75 712.5 3104.44 712.5 3108.25 716.306 3108.25 721Z" stroke="#FFFFFF" stroke-width="4.58333" stroke-linejoin="round" stroke-miterlimit="10" fill="#0C394E"/><path d="M3108.25 1091C3108.25 1095.69 3104.44 1099.5 3099.75 1099.5 3095.06 1099.5 3091.25 1095.69 3091.25 1091 3091.25 1086.31 3095.06 1082.5 3099.75 1082.5 3104.44 1082.5 3108.25 1086.31 3108.25 1091Z" stroke="#FFFFFF" stroke-width="4.58333" stroke-linejoin="round" stroke-miterlimit="10" fill="#0C394E"/><path d="M2788.25 1275C2788.25 1279.69 2784.44 1283.5 2779.75 1283.5 2775.06 1283.5 2771.25 1279.69 2771.25 1275 2771.25 1270.31 2775.06 1266.5 2779.75 1266.5 2784.44 1266.5 2788.25 1270.31 2788.25 1275Z" stroke="#FFFFFF" stroke-width="4.58333" stroke-linejoin="round" stroke-miterlimit="10" fill="#0C394E"/><path d="M2469.25 1091C2469.25 1095.69 2465.44 1099.5 2460.75 1099.5 2456.06 1099.5 2452.25 1095.69 2452.25 1091 2452.25 1086.31 2456.06 1082.5 2460.75 1082.5 2465.44 1082.5 2469.25 1086.31 2469.25 1091Z" stroke="#FFFFFF" stroke-width="4.58333" stroke-linejoin="round" stroke-miterlimit="10" fill="#0C394E"/><path d="M2575.25 783C2575.25 787.694 2571.44 791.499 2566.75 791.499 2562.06 791.499 2558.25 787.694 2558.25 783 2558.25 778.305 2562.06 774.5 2566.75 774.5 2571.44 774.5 2575.25 778.305 2575.25 783Z" stroke="#FFFFFF" stroke-width="4.58333" stroke-linejoin="round" stroke-miterlimit="10" fill="#0C394E"/></g><g><path d="M2674.09 845.028 2781.09 660 2994 783.026 2994 1030 2781.09 1030 2568 1030 2674.09 845.028" stroke="#984211" stroke-width="18.3333" stroke-linecap="round" stroke-linejoin="round" stroke-miterlimit="10" stroke-opacity="0.301961" fill="none"/></g><g><path d="M2788.25 660C2788.25 664.694 2784.44 668.5 2779.75 668.5 2775.06 668.5 2771.25 664.694 2771.25 660 2771.25 655.306 2775.06 651.5 2779.75 651.5 2784.44 651.5 2788.25 655.306 2788.25 660Z" stroke="#FFFFFF" stroke-width="4.58333" stroke-linejoin="round" stroke-miterlimit="10" fill="#984211"/><path d="M3002.25 783C3002.25 787.694 2998.44 791.499 2993.75 791.499 2989.06 791.499 2985.25 787.694 2985.25 783 2985.25 778.305 2989.06 774.5 2993.75 774.5 2998.44 774.5 3002.25 778.305 3002.25 783Z" stroke="#FFFFFF" stroke-width="4.58333" stroke-linejoin="round" stroke-miterlimit="10" fill="#984211"/><path d="M3002.25 1029C3002.25 1033.69 2998.44 1037.5 2993.75 1037.5 2989.06 1037.5 2985.25 1033.69 2985.25 1029 2985.25 1024.31 2989.06 1020.5 2993.75 1020.5 2998.44 1020.5 3002.25 1024.31 3002.25 1029Z" stroke="#FFFFFF" stroke-width="4.58333" stroke-linejoin="round" stroke-miterlimit="10" fill="#984211"/><path d="M2788.25 1029C2788.25 1033.69 2784.44 1037.5 2779.75 1037.5 2775.06 1037.5 2771.25 1033.69 2771.25 1029 2771.25 1024.31 2775.06 1020.5 2779.75 1020.5 2784.44 1020.5 2788.25 1024.31 2788.25 1029Z" stroke="#FFFFFF" stroke-width="4.58333" stroke-linejoin="round" stroke-miterlimit="10" fill="#984211"/><path d="M2575.25 1029C2575.25 1033.69 2571.44 1037.5 2566.75 1037.5 2562.06 1037.5 2558.25 1033.69 2558.25 1029 2558.25 1024.31 2562.06 1020.5 2566.75 1020.5 2571.44 1020.5 2575.25 1024.31 2575.25 1029Z" stroke="#FFFFFF" stroke-width="4.58333" stroke-linejoin="round" stroke-miterlimit="10" fill="#984211"/><path d="M2682.25 844C2682.25 848.694 2678.44 852.5 2673.75 852.5 2669.06 852.5 2665.25 848.694 2665.25 844 2665.25 839.306 2669.06 835.5 2673.75 835.5 2678.44 835.5 2682.25 839.306 2682.25 844Z" stroke="#FFFFFF" stroke-width="4.58333" stroke-linejoin="round" stroke-miterlimit="10" fill="#984211"/></g><g><path d="M2354 660.022 2781.09 291 2994.1 783.026 3207 1153.04 2781.09 1276 2354 1153.04 2354 660.022" stroke="#0E4116" stroke-width="18.3333" stroke-linecap="round" stroke-linejoin="round" stroke-miterlimit="10" stroke-opacity="0.301961" fill="none"/></g><g><path d="M2788.25 290C2788.25 294.694 2784.44 298.5 2779.75 298.5 2775.06 298.5 2771.25 294.694 2771.25 290 2771.25 285.306 2775.06 281.5 2779.75 281.5 2784.44 281.5 2788.25 285.306 2788.25 290Z" stroke="#FFFFFF" stroke-width="4.58333" stroke-linejoin="round" stroke-miterlimit="10" fill="#0E4116"/><path d="M3002.25 783C3002.25 787.694 2998.44 791.499 2993.75 791.499 2989.06 791.499 2985.25 787.694 2985.25 783 2985.25 778.305 2989.06 774.5 2993.75 774.5 2998.44 774.5 3002.25 778.305 3002.25 783Z" stroke="#FFFFFF" stroke-width="4.58333" stroke-linejoin="round" stroke-miterlimit="10" fill="#0E4116"/><path d="M3215.25 1152C3215.25 1156.69 3211.44 1160.5 3206.75 1160.5 3202.06 1160.5 3198.25 1156.69 3198.25 1152 3198.25 1147.31 3202.06 1143.5 3206.75 1143.5 3211.44 1143.5 3215.25 1147.31 3215.25 1152Z" stroke="#FFFFFF" stroke-width="4.58333" stroke-linejoin="round" stroke-miterlimit="10" fill="#0E4116"/><path d="M2788.25 1275C2788.25 1279.69 2784.44 1283.5 2779.75 1283.5 2775.06 1283.5 2771.25 1279.69 2771.25 1275 2771.25 1270.31 2775.06 1266.5 2779.75 1266.5 2784.44 1266.5 2788.25 1270.31 2788.25 1275Z" stroke="#FFFFFF" stroke-width="4.58333" stroke-linejoin="round" stroke-miterlimit="10" fill="#0E4116"/><path d="M2362.25 1152C2362.25 1156.69 2358.44 1160.5 2353.75 1160.5 2349.06 1160.5 2345.25 1156.69 2345.25 1152 2345.25 1147.31 2349.06 1143.5 2353.75 1143.5 2358.44 1143.5 2362.25 1147.31 2362.25 1152Z" stroke="#FFFFFF" stroke-width="4.58333" stroke-linejoin="round" stroke-miterlimit="10" fill="#0E4116"/><path d="M2362.25 660C2362.25 664.694 2358.44 668.5 2353.75 668.5 2349.06 668.5 2345.25 664.694 2345.25 660 2345.25 655.306 2349.06 651.5 2353.75 651.5 2358.44 651.5 2362.25 655.306 2362.25 660Z" stroke="#FFFFFF" stroke-width="4.58333" stroke-linejoin="round" stroke-miterlimit="10" fill="#0E4116"/></g><g><path d="M2354 660.022 2781.09 168 3101.1 722.024 3314 1214.04 2781.09 1522 2354 1153.04 2354 660.022" stroke="#095F80" stroke-width="18.3333" stroke-linecap="round" stroke-linejoin="round" stroke-miterlimit="10" stroke-opacity="0.301961" fill="none"/></g><g><path d="M2788.25 167C2788.25 171.694 2784.44 175.499 2779.75 175.499 2775.06 175.499 2771.25 171.694 2771.25 167 2771.25 162.305 2775.06 158.5 2779.75 158.5 2784.44 158.5 2788.25 162.305 2788.25 167Z" stroke="#FFFFFF" stroke-width="4.58333" stroke-linejoin="round" stroke-miterlimit="10" fill="#095F80"/><path d="M3108.25 721C3108.25 725.694 3104.44 729.5 3099.75 729.5 3095.06 729.5 3091.25 725.694 3091.25 721 3091.25 716.306 3095.06 712.5 3099.75 712.5 3104.44 712.5 3108.25 716.306 3108.25 721Z" stroke="#FFFFFF" stroke-width="4.58333" stroke-linejoin="round" stroke-miterlimit="10" fill="#095F80"/><path d="M3322.25 1214C3322.25 1218.69 3318.44 1222.5 3313.75 1222.5 3309.06 1222.5 3305.25 1218.69 3305.25 1214 3305.25 1209.31 3309.06 1205.5 3313.75 1205.5 3318.44 1205.5 3322.25 1209.31 3322.25 1214Z" stroke="#FFFFFF" stroke-width="4.58333" stroke-linejoin="round" stroke-miterlimit="10" fill="#095F80"/><path d="M2788.25 1522C2788.25 1526.69 2784.44 1530.5 2779.75 1530.5 2775.06 1530.5 2771.25 1526.69 2771.25 1522 2771.25 1517.31 2775.06 1513.5 2779.75 1513.5 2784.44 1513.5 2788.25 1517.31 2788.25 1522Z" stroke="#FFFFFF" stroke-width="4.58333" stroke-linejoin="round" stroke-miterlimit="10" fill="#095F80"/><path d="M2362.25 1152C2362.25 1156.69 2358.44 1160.5 2353.75 1160.5 2349.06 1160.5 2345.25 1156.69 2345.25 1152 2345.25 1147.31 2349.06 1143.5 2353.75 1143.5 2358.44 1143.5 2362.25 1147.31 2362.25 1152Z" stroke="#FFFFFF" stroke-width="4.58333" stroke-linejoin="round" stroke-miterlimit="10" fill="#095F80"/><path d="M2362.25 660C2362.25 664.694 2358.44 668.5 2353.75 668.5 2349.06 668.5 2345.25 664.694 2345.25 660 2345.25 655.306 2349.06 651.5 2353.75 651.5 2358.44 651.5 2362.25 655.306 2362.25 660Z" stroke="#FFFFFF" stroke-width="4.58333" stroke-linejoin="round" stroke-miterlimit="10" fill="#095F80"/></g><g><path d="M2141 537.018 2781.09 291 3421 537.018 3421 1276.04 2781.09 1645 2248.07 1214.04 2141 537.018" stroke="#601A58" stroke-width="18.3333" stroke-linecap="round" stroke-linejoin="round" stroke-miterlimit="10" stroke-opacity="0.301961" fill="none"/></g><g><path d="M2788.25 290C2788.25 294.694 2784.44 298.5 2779.75 298.5 2775.06 298.5 2771.25 294.694 2771.25 290 2771.25 285.306 2775.06 281.5 2779.75 281.5 2784.44 281.5 2788.25 285.306 2788.25 290Z" stroke="#FFFFFF" stroke-width="4.58333" stroke-linejoin="round" stroke-miterlimit="10" fill="#601A58"/><path d="M3428.25 537C3428.25 541.694 3424.44 545.5 3419.75 545.5 3415.06 545.5 3411.25 541.694 3411.25 537 3411.25 532.306 3415.06 528.5 3419.75 528.5 3424.44 528.5 3428.25 532.306 3428.25 537Z" stroke="#FFFFFF" stroke-width="4.58333" stroke-linejoin="round" stroke-miterlimit="10" fill="#601A58"/><path d="M3428.25 1275C3428.25 1279.69 3424.44 1283.5 3419.75 1283.5 3415.06 1283.5 3411.25 1279.69 3411.25 1275 3411.25 1270.31 3415.06 1266.5 3419.75 1266.5 3424.44 1266.5 3428.25 1270.31 3428.25 1275Z" stroke="#FFFFFF" stroke-width="4.58333" stroke-linejoin="round" stroke-miterlimit="10" fill="#601A58"/><path d="M2788.25 1645C2788.25 1649.69 2784.44 1653.5 2779.75 1653.5 2775.06 1653.5 2771.25 1649.69 2771.25 1645 2771.25 1640.31 2775.06 1636.5 2779.75 1636.5 2784.44 1636.5 2788.25 1640.31 2788.25 1645Z" stroke="#FFFFFF" stroke-width="4.58333" stroke-linejoin="round" stroke-miterlimit="10" fill="#601A58"/><path d="M2255.25 1214C2255.25 1218.69 2251.44 1222.5 2246.75 1222.5 2242.06 1222.5 2238.25 1218.69 2238.25 1214 2238.25 1209.31 2242.06 1205.5 2246.75 1205.5 2251.44 1205.5 2255.25 1209.31 2255.25 1214Z" stroke="#FFFFFF" stroke-width="4.58333" stroke-linejoin="round" stroke-miterlimit="10" fill="#601A58"/><path d="M2149.25 537C2149.25 541.694 2145.44 545.5 2140.75 545.5 2136.06 545.5 2132.25 541.694 2132.25 537 2132.25 532.306 2136.06 528.5 2140.75 528.5 2145.44 528.5 2149.25 532.306 2149.25 537Z" stroke="#FFFFFF" stroke-width="4.58333" stroke-linejoin="round" stroke-miterlimit="10" fill="#601A58"/></g><g><path d="M2354 660.022 2781.09 537 3207 660.022 3207 1153.04 2781.09 1276 2354 1153.04 2354 660.022" stroke="#2F641C" stroke-width="18.3333" stroke-linecap="round" stroke-linejoin="round" stroke-miterlimit="10" stroke-opacity="0.301961" fill="none"/></g><g><path d="M2788.25 537C2788.25 541.694 2784.44 545.5 2779.75 545.5 2775.06 545.5 2771.25 541.694 2771.25 537 2771.25 532.306 2775.06 528.5 2779.75 528.5 2784.44 528.5 2788.25 532.306 2788.25 537Z" stroke="#FFFFFF" stroke-width="4.58333" stroke-linejoin="round" stroke-miterlimit="10" fill="#2F641C"/><path d="M3215.25 660C3215.25 664.694 3211.44 668.5 3206.75 668.5 3202.06 668.5 3198.25 664.694 3198.25 660 3198.25 655.306 3202.06 651.5 3206.75 651.5 3211.44 651.5 3215.25 655.306 3215.25 660Z" stroke="#FFFFFF" stroke-width="4.58333" stroke-linejoin="round" stroke-miterlimit="10" fill="#2F641C"/><path d="M3215.25 1152C3215.25 1156.69 3211.44 1160.5 3206.75 1160.5 3202.06 1160.5 3198.25 1156.69 3198.25 1152 3198.25 1147.31 3202.06 1143.5 3206.75 1143.5 3211.44 1143.5 3215.25 1147.31 3215.25 1152Z" stroke="#FFFFFF" stroke-width="4.58333" stroke-linejoin="round" stroke-miterlimit="10" fill="#2F641C"/><path d="M2788.25 1275C2788.25 1279.69 2784.44 1283.5 2779.75 1283.5 2775.06 1283.5 2771.25 1279.69 2771.25 1275 2771.25 1270.31 2775.06 1266.5 2779.75 1266.5 2784.44 1266.5 2788.25 1270.31 2788.25 1275Z" stroke="#FFFFFF" stroke-width="4.58333" stroke-linejoin="round" stroke-miterlimit="10" fill="#2F641C"/><path d="M2362.25 1152C2362.25 1156.69 2358.44 1160.5 2353.75 1160.5 2349.06 1160.5 2345.25 1156.69 2345.25 1152 2345.25 1147.31 2349.06 1143.5 2353.75 1143.5 2358.44 1143.5 2362.25 1147.31 2362.25 1152Z" stroke="#FFFFFF" stroke-width="4.58333" stroke-linejoin="round" stroke-miterlimit="10" fill="#2F641C"/><path d="M2362.25 660C2362.25 664.694 2358.44 668.5 2353.75 668.5 2349.06 668.5 2345.25 664.694 2345.25 660 2345.25 655.306 2349.06 651.5 2353.75 651.5 2358.44 651.5 2362.25 655.306 2362.25 660Z" stroke="#FFFFFF" stroke-width="4.58333" stroke-linejoin="round" stroke-miterlimit="10" fill="#2F641C"/></g><g><text font-family="Aptos Narrow,Aptos Narrow_MSFontService,sans-serif" font-weight="700" font-stretch="semi-condensed" font-size="55" transform="matrix(1 0 0 1 2697.36 925)">1</text></g><g><text font-family="Aptos Narrow,Aptos Narrow_MSFontService,sans-serif" font-weight="700" font-stretch="semi-condensed" font-size="55" transform="matrix(1 0 0 1 2697.36 802)">2</text></g><g><text font-family="Aptos Narrow,Aptos Narrow_MSFontService,sans-serif" font-weight="700" font-stretch="semi-condensed" font-size="55" transform="matrix(1 0 0 1 2697.36 679)">3</text></g><g><text font-family="Aptos Narrow,Aptos Narrow_MSFontService,sans-serif" font-weight="700" font-stretch="semi-condensed" font-size="55" transform="matrix(1 0 0 1 2697.36 556)">4</text></g><g><text font-family="Aptos Narrow,Aptos Narrow_MSFontService,sans-serif" font-weight="700" font-stretch="semi-condensed" font-size="55" transform="matrix(1 0 0 1 2697.36 433)">5</text></g><g><text font-family="Aptos Narrow,Aptos Narrow_MSFontService,sans-serif" font-weight="700" font-stretch="semi-condensed" font-size="55" transform="matrix(1 0 0 1 2697.36 309)">6</text></g><g><text font-family="Aptos Narrow,Aptos Narrow_MSFontService,sans-serif" font-weight="700" font-stretch="semi-condensed" font-size="55" transform="matrix(1 0 0 1 2697.36 186)">7</text></g><g clip-path="url(#clip1)"><text font-family="Aptos Narrow,Aptos Narrow_MSFontService,sans-serif" font-weight="700" font-stretch="semi-condensed" font-size="64" transform="matrix(1 0 0 1 2670.82 113)">Comfort</text></g><g><text font-family="Aptos Narrow,Aptos Narrow_MSFontService,sans-serif" font-weight="700" font-stretch="semi-condensed" font-size="64" transform="matrix(1 0 0 1 3446.29 540)">Ease</text></g><g><text font-family="Aptos Narrow,Aptos Narrow_MSFontService,sans-serif" font-weight="700" font-stretch="semi-condensed" font-size="64" transform="matrix(1 0 0 1 3446.29 1308)">Intuitive</text></g><g><text font-family="Aptos Narrow,Aptos Narrow_MSFontService,sans-serif" font-weight="700" font-stretch="semi-condensed" font-size="64" transform="matrix(1 0 0 1 2637.55 1735)">Productive</text></g><g><text font-family="Aptos Narrow,Aptos Narrow_MSFontService,sans-serif" font-weight="700" font-stretch="semi-condensed" font-size="64" transform="matrix(1 0 0 1 1865.2 1308)">Preferred</text></g><g><text font-family="Aptos Narrow,Aptos Narrow_MSFontService,sans-serif" font-weight="700" font-stretch="semi-condensed" font-size="64" transform="matrix(1 0 0 1 1778.09 540)">Recommend</text></g><g><path d="M3733 413 3821 413" stroke="#145F82" stroke-width="18.3333" stroke-linecap="round" stroke-linejoin="round" stroke-miterlimit="10" stroke-opacity="0.301961" fill="none" fill-rule="evenodd"/></g><g><path d="M3784 411.5C3784 416.194 3780.19 419.999 3775.5 419.999 3770.81 419.999 3767 416.194 3767 411.5 3767 406.805 3770.81 403 3775.5 403 3780.19 403 3784 406.805 3784 411.5Z" stroke="#FFFFFF" stroke-width="4.58333" stroke-linejoin="round" stroke-miterlimit="10" fill="#145F82"/></g><g><text font-family="Aptos Narrow,Aptos Narrow_MSFontService,sans-serif" font-weight="700" font-stretch="semi-condensed" font-size="55" transform="matrix(1 0 0 1 3830.22 428)">Participant 1</text></g><g><path d="M3733 507 3821 507" stroke="#E87331" stroke-width="18.3333" stroke-linecap="round" stroke-linejoin="round" stroke-miterlimit="10" stroke-opacity="0.301961" fill="none" fill-rule="evenodd"/></g><g><path d="M3784 506C3784 510.433 3780.19 514.027 3775.5 514.027 3770.81 514.027 3767 510.433 3767 506 3767 501.566 3770.81 497.972 3775.5 497.972 3780.19 497.972 3784 501.566 3784 506Z" stroke="#FFFFFF" stroke-width="4.58333" stroke-linejoin="round" stroke-miterlimit="10" fill="#E87331"/></g><g><text font-family="Aptos Narrow,Aptos Narrow_MSFontService,sans-serif" font-weight="700" font-stretch="semi-condensed" font-size="55" transform="matrix(1 0 0 1 3830.22 522)">Participant 2</text></g><g><path d="M3733 601 3821 601" stroke="#186C24" stroke-width="18.3333" stroke-linecap="round" stroke-linejoin="round" stroke-miterlimit="10" stroke-opacity="0.301961" fill="none" fill-rule="evenodd"/></g><g><path d="M3784 599.5C3784 604.194 3780.19 607.999 3775.5 607.999 3770.81 607.999 3767 604.194 3767 599.5 3767 594.805 3770.81 591 3775.5 591 3780.19 591 3784 594.805 3784 599.5Z" stroke="#FFFFFF" stroke-width="4.58333" stroke-linejoin="round" stroke-miterlimit="10" fill="#186C24"/></g><g><text font-family="Aptos Narrow,Aptos Narrow_MSFontService,sans-serif" font-weight="700" font-stretch="semi-condensed" font-size="55" transform="matrix(1 0 0 1 3830.22 616)">Participant 3</text></g><g><path d="M3733 695 3821 695" stroke="#0F9ED5" stroke-width="18.3333" stroke-linecap="round" stroke-linejoin="round" stroke-miterlimit="10" stroke-opacity="0.301961" fill="none" fill-rule="evenodd"/></g><g><path d="M3784 693.5C3784 698.194 3780.19 702 3775.5 702 3770.81 702 3767 698.194 3767 693.5 3767 688.805 3770.81 685 3775.5 685 3780.19 685 3784 688.805 3784 693.5Z" stroke="#FFFFFF" stroke-width="4.58333" stroke-linejoin="round" stroke-miterlimit="10" fill="#0F9ED5"/></g><g><text font-family="Aptos Narrow,Aptos Narrow_MSFontService,sans-serif" font-weight="700" font-stretch="semi-condensed" font-size="55" transform="matrix(1 0 0 1 3830.22 710)">Participant 4</text></g><g><path d="M3733 789 3821 789" stroke="#A02B93" stroke-width="18.3333" stroke-linecap="round" stroke-linejoin="round" stroke-miterlimit="10" stroke-opacity="0.301961" fill="none" fill-rule="evenodd"/></g><g><path d="M3784 787.5C3784 792.194 3780.19 795.999 3775.5 795.999 3770.81 795.999 3767 792.194 3767 787.5 3767 782.805 3770.81 779 3775.5 779 3780.19 779 3784 782.805 3784 787.5Z" stroke="#FFFFFF" stroke-width="4.58333" stroke-linejoin="round" stroke-miterlimit="10" fill="#A02B93"/></g><g><text font-family="Aptos Narrow,Aptos Narrow_MSFontService,sans-serif" font-weight="700" font-stretch="semi-condensed" font-size="55" transform="matrix(1 0 0 1 3830.22 804)">Participant 5</text></g><g><path d="M3733 883 3821 883" stroke="#4EA72E" stroke-width="18.3333" stroke-linecap="round" stroke-linejoin="round" stroke-miterlimit="10" stroke-opacity="0.301961" fill="none" fill-rule="evenodd"/></g><g><path d="M3784 881.5C3784 886.194 3780.19 890 3775.5 890 3770.81 890 3767 886.194 3767 881.5 3767 876.805 3770.81 873 3775.5 873 3780.19 873 3784 876.805 3784 881.5Z" stroke="#FFFFFF" stroke-width="4.58333" stroke-linejoin="round" stroke-miterlimit="10" fill="#4EA72E"/></g><g><text font-family="Aptos Narrow,Aptos Narrow_MSFontService,sans-serif" font-weight="700" font-stretch="semi-condensed" font-size="55" transform="matrix(1 0 0 1 3830.22 898)">Participant 6</text></g><g><path d="M3733 976 3821 976" stroke="#0C394E" stroke-width="18.3333" stroke-linecap="round" stroke-linejoin="round" stroke-miterlimit="10" stroke-opacity="0.301961" fill="none" fill-rule="evenodd"/></g><g><path d="M3784 975.5C3784 980.194 3780.19 983.999 3775.5 983.999 3770.81 983.999 3767 980.194 3767 975.5 3767 970.805 3770.81 967 3775.5 967 3780.19 967 3784 970.805 3784 975.5Z" stroke="#FFFFFF" stroke-width="4.58333" stroke-linejoin="round" stroke-miterlimit="10" fill="#0C394E"/></g><g><text font-family="Aptos Narrow,Aptos Narrow_MSFontService,sans-serif" font-weight="700" font-stretch="semi-condensed" font-size="55" transform="matrix(1 0 0 1 3830.22 992)">Participant 7</text></g><g><path d="M3733 1070 3821 1070" stroke="#984211" stroke-width="18.3333" stroke-linecap="round" stroke-linejoin="round" stroke-miterlimit="10" stroke-opacity="0.301961" fill="none" fill-rule="evenodd"/></g><g><path d="M3784 1069.5C3784 1074.19 3780.19 1078 3775.5 1078 3770.81 1078 3767 1074.19 3767 1069.5 3767 1064.81 3770.81 1061 3775.5 1061 3780.19 1061 3784 1064.81 3784 1069.5Z" stroke="#FFFFFF" stroke-width="4.58333" stroke-linejoin="round" stroke-miterlimit="10" fill="#984211"/></g><g><text font-family="Aptos Narrow,Aptos Narrow_MSFontService,sans-serif" font-weight="700" font-stretch="semi-condensed" font-size="55" transform="matrix(1 0 0 1 3830.22 1086)">Participant 8</text></g><g><path d="M3733 1164 3821 1164" stroke="#0E4116" stroke-width="18.3333" stroke-linecap="round" stroke-linejoin="round" stroke-miterlimit="10" stroke-opacity="0.301961" fill="none" fill-rule="evenodd"/></g><g><path d="M3784 1164C3784 1168.43 3780.19 1172.03 3775.5 1172.03 3770.81 1172.03 3767 1168.43 3767 1164 3767 1159.57 3770.81 1155.97 3775.5 1155.97 3780.19 1155.97 3784 1159.57 3784 1164Z" stroke="#FFFFFF" stroke-width="4.58333" stroke-linejoin="round" stroke-miterlimit="10" fill="#0E4116"/></g><g><text font-family="Aptos Narrow,Aptos Narrow_MSFontService,sans-serif" font-weight="700" font-stretch="semi-condensed" font-size="55" transform="matrix(1 0 0 1 3830.22 1180)">Participant 9</text></g><g><path d="M3733 1258 3821 1258" stroke="#095F80" stroke-width="18.3333" stroke-linecap="round" stroke-linejoin="round" stroke-miterlimit="10" stroke-opacity="0.301961" fill="none" fill-rule="evenodd"/></g><g><path d="M3784 1257.5C3784 1262.19 3780.19 1266 3775.5 1266 3770.81 1266 3767 1262.19 3767 1257.5 3767 1252.81 3770.81 1249 3775.5 1249 3780.19 1249 3784 1252.81 3784 1257.5Z" stroke="#FFFFFF" stroke-width="4.58333" stroke-linejoin="round" stroke-miterlimit="10" fill="#095F80"/></g><g><text font-family="Aptos Narrow,Aptos Narrow_MSFontService,sans-serif" font-weight="700" font-stretch="semi-condensed" font-size="55" transform="matrix(1 0 0 1 3830.22 1274)">Participant 10</text></g><g><path d="M3733 1352 3821 1352" stroke="#601A58" stroke-width="18.3333" stroke-linecap="round" stroke-linejoin="round" stroke-miterlimit="10" stroke-opacity="0.301961" fill="none" fill-rule="evenodd"/></g><g><path d="M3784 1352C3784 1356.43 3780.19 1360.03 3775.5 1360.03 3770.81 1360.03 3767 1356.43 3767 1352 3767 1347.57 3770.81 1343.97 3775.5 1343.97 3780.19 1343.97 3784 1347.57 3784 1352Z" stroke="#FFFFFF" stroke-width="4.58333" stroke-linejoin="round" stroke-miterlimit="10" fill="#601A58"/></g><g><text font-family="Aptos Narrow,Aptos Narrow_MSFontService,sans-serif" font-weight="700" font-stretch="semi-condensed" font-size="55" transform="matrix(1 0 0 1 3830.22 1368)">Participant 11</text></g><g><path d="M3733 1446 3821 1446" stroke="#2F641C" stroke-width="18.3333" stroke-linecap="round" stroke-linejoin="round" stroke-miterlimit="10" stroke-opacity="0.301961" fill="none" fill-rule="evenodd"/></g><g><path d="M3784 1445.5C3784 1450.19 3780.19 1454 3775.5 1454 3770.81 1454 3767 1450.19 3767 1445.5 3767 1440.81 3770.81 1437 3775.5 1437 3780.19 1437 3784 1440.81 3784 1445.5Z" stroke="#FFFFFF" stroke-width="4.58333" stroke-linejoin="round" stroke-miterlimit="10" fill="#2F641C"/></g><g><text font-family="Aptos Narrow,Aptos Narrow_MSFontService,sans-serif" font-weight="700" font-stretch="semi-condensed" font-size="55" transform="matrix(1 0 0 1 3830.22 1462)">Participant 12</text></g><rect x="4197" y="65" width="2648" height="1728" fill="#FFFFFF"/><g><path d="M5530.68 809.527 5640.69 873.529M5640.69 873.529 5640.69 1000.53M5640.69 1000.53 5530.68 1064.54M5530.68 1064.54 5419.68 1000.53M5419.68 1000.53 5419.68 873.529M5419.68 873.529 5530.68 809.527M5530.68 681.523 5751.69 809.527M5751.69 809.527 5751.69 1064.54M5751.69 1064.54 5530.68 1192.54M5530.68 1192.54 5309.67 1064.54M5309.67 1064.54 5309.67 809.527M5309.67 809.527 5530.68 681.523M5530.68 553.518 5861.69 745.525M5861.69 745.525 5861.69 1128.54M5861.69 1128.54 5530.68 1319.54M5530.68 1319.54 5198.67 1128.54M5198.67 1128.54 5198.67 745.525M5198.67 745.525 5530.68 553.518M5530.68 426.514 5972.7 681.523M5972.7 681.523 5972.7 1192.54M5972.7 1192.54 5530.68 1447.55M5530.68 1447.55 5087.67 1192.54M5087.67 1192.54 5087.67 681.523M5087.67 681.523 5530.68 426.514M5530.68 298.51 6082.7 617.52M6082.7 617.52 6082.7 1255.54M6082.7 1255.54 5530.68 1575.55M5530.68 1575.55 4977.66 1255.54M4977.66 1255.54 4977.66 617.52M4977.66 617.52 5530.68 298.51M5530.68 171.5 6193.5 553.518M6193.5 553.518 6193.5 1319.54M6193.5 1319.54 5530.68 1702.5M5530.68 1702.5 4867.5 1319.54M4867.5 1319.54 4867.5 553.518M4867.5 553.518 5530.68 171.5" stroke="#000000" stroke-width="6.875" stroke-linejoin="round" stroke-miterlimit="10" fill="none"/></g><g><path d="M5530.68 426.5 5916.69 713.524 5981.5 1197.54 5530.68 1372.5 5115.5 1176.54 5115.5 697.523Z" stroke="#145F82" stroke-width="9.16667" stroke-linejoin="round" stroke-miterlimit="10" stroke-dasharray="9.16667 9.16667" fill="#145F82" fill-opacity="0.501961"/></g><g><path d="M5530.68 936.531 5530.68 171.5M5530.68 936.531 6193.5 553.518M5530.68 936.531 6193.5 1319.54M5530.68 936.531 5530.68 1702.5M5530.68 936.531 4867.5 1319.54M5530.68 936.531 4867.5 553.518M5530.68 936.531 5530.68 171.5" stroke="#000000" stroke-width="6.875" stroke-linejoin="round" stroke-miterlimit="10" fill="none"/></g><g><path d="M5503.5 345.5 5524.67 345.5 5524.67 345.5 5556.42 345.5 5630.5 345.5 5630.5 392.75 5630.5 392.75 5630.5 413 5630.5 426.5 5556.42 426.5 5530.35 426.5 5524.67 426.5 5503.5 426.5 5503.5 413 5503.5 392.75 5503.5 392.75Z" stroke="#BFBFBF" stroke-width="3.4375" stroke-linejoin="round" stroke-miterlimit="10" fill="#FFFFFF" fill-rule="evenodd"/></g><g><g><text font-family="Aptos Narrow,Aptos Narrow_MSFontService,sans-serif" font-weight="700" font-stretch="semi-condensed" font-size="55" transform="matrix(1 0 0 1 5517.81 405)">5.00</text></g></g><g><path d="M5913.5 650.5 5934.67 650.5 5934.67 650.5 5966.42 650.5 6040.5 650.5 6040.5 698.333 6040.5 698.333 6040.5 718.833 6040.5 732.5 5966.42 732.5 5934.67 732.5 5934.67 732.5 5913.5 732.5 5913.5 718.833 5913.5 713.946 5913.5 698.333Z" stroke="#BFBFBF" stroke-width="3.4375" stroke-linejoin="round" stroke-miterlimit="10" fill="#FFFFFF" fill-rule="evenodd"/></g><g><g><text font-family="Aptos Narrow,Aptos Narrow_MSFontService,sans-serif" font-weight="700" font-stretch="semi-condensed" font-size="55" transform="matrix(1 0 0 1 5927.41 710)">4.50</text></g></g><g><path d="M5993.5 1192.5 6014.67 1192.5 6014.67 1192.5 6046.42 1192.5 6120.5 1192.5 6120.5 1206.17 6120.5 1206.17 6120.5 1226.67 6120.5 1274.5 6046.42 1274.5 6014.67 1274.5 6014.67 1274.5 5993.5 1274.5 5993.5 1226.67 5981.35 1197.45 5993.5 1206.17Z" stroke="#BFBFBF" stroke-width="3.4375" stroke-linejoin="round" stroke-miterlimit="10" fill="#FFFFFF" fill-rule="evenodd"/></g><g><g><text font-family="Aptos Narrow,Aptos Narrow_MSFontService,sans-serif" font-weight="700" font-stretch="semi-condensed" font-size="55" transform="matrix(1 0 0 1 6008.18 1252)">5.08</text></g></g><g><path d="M5466.5 1390.5 5487.67 1390.5 5530 1373 5519.42 1390.5 5593.5 1390.5 5593.5 1404.17 5593.5 1404.17 5593.5 1424.67 5593.5 1472.5 5519.42 1472.5 5487.67 1472.5 5487.67 1472.5 5466.5 1472.5 5466.5 1424.67 5466.5 1404.17 5466.5 1404.17Z" stroke="#BFBFBF" stroke-width="3.4375" stroke-linejoin="round" stroke-miterlimit="10" fill="#FFFFFF" fill-rule="evenodd"/></g><g><g><text font-family="Aptos Narrow,Aptos Narrow_MSFontService,sans-serif" font-weight="700" font-stretch="semi-condensed" font-size="55" transform="matrix(1 0 0 1 5481.17 1450)">4.42</text></g></g><g><path d="M4992.5 1184.5 5066.58 1184.5 5115.36 1175.84 5098.33 1184.5 5119.5 1184.5 5119.5 1198.17 5119.5 1198.17 5119.5 1218.67 5119.5 1266.5 5098.33 1266.5 5066.58 1266.5 5066.58 1266.5 4992.5 1266.5 4992.5 1218.67 4992.5 1198.17 4992.5 1198.17Z" stroke="#BFBFBF" stroke-width="3.4375" stroke-linejoin="round" stroke-miterlimit="10" fill="#FFFFFF" fill-rule="evenodd"/></g><g><g><text font-family="Aptos Narrow,Aptos Narrow_MSFontService,sans-serif" font-weight="700" font-stretch="semi-condensed" font-size="55" transform="matrix(1 0 0 1 5007.29 1244)">4.75</text></g></g><g><path d="M4980.5 607.5 5054.58 607.5 5054.58 607.5 5086.33 607.5 5107.5 607.5 5107.5 654.75 5107.5 654.75 5107.5 675 5107.5 688.5 5086.33 688.5 5115.57 697.056 5054.58 688.5 4980.5 688.5 4980.5 675 4980.5 654.75 4980.5 654.75Z" stroke="#BFBFBF" stroke-width="3.4375" stroke-linejoin="round" stroke-miterlimit="10" fill="#FFFFFF" fill-rule="evenodd"/></g><g><g><text font-family="Aptos Narrow,Aptos Narrow_MSFontService,sans-serif" font-weight="700" font-stretch="semi-condensed" font-size="55" transform="matrix(1 0 0 1 4995.08 667)">4.75</text></g></g><g><text font-family="Aptos Narrow,Aptos Narrow_MSFontService,sans-serif" font-weight="700" font-stretch="semi-condensed" font-size="55" transform="matrix(1 0 0 1 5376.3 955)">1.00</text></g><g><text font-family="Aptos Narrow,Aptos Narrow_MSFontService,sans-serif" font-weight="700" font-stretch="semi-condensed" font-size="55" transform="matrix(1 0 0 1 5376.3 828)">2.00</text></g><g><text font-family="Aptos Narrow,Aptos Narrow_MSFontService,sans-serif" font-weight="700" font-stretch="semi-condensed" font-size="55" transform="matrix(1 0 0 1 5376.3 700)">3.00</text></g><g><text font-family="Aptos Narrow,Aptos Narrow_MSFontService,sans-serif" font-weight="700" font-stretch="semi-condensed" font-size="55" transform="matrix(1 0 0 1 5376.3 572)">4.00</text></g><g><text font-family="Aptos Narrow,Aptos Narrow_MSFontService,sans-serif" font-weight="700" font-stretch="semi-condensed" font-size="55" transform="matrix(1 0 0 1 5376.3 445)">5.00</text></g><g><text font-family="Aptos Narrow,Aptos Narrow_MSFontService,sans-serif" font-weight="700" font-stretch="semi-condensed" font-size="55" transform="matrix(1 0 0 1 5376.3 317)">6.00</text></g><g><text font-family="Aptos Narrow,Aptos Narrow_MSFontService,sans-serif" font-weight="700" font-stretch="semi-condensed" font-size="55" transform="matrix(1 0 0 1 5376.3 189)">7.00</text></g><g clip-path="url(#clip2)"><text font-family="Aptos Narrow,Aptos Narrow_MSFontService,sans-serif" font-weight="700" font-stretch="semi-condensed" font-size="64" transform="matrix(1 0 0 1 5420.17 115)">Comfort</text></g><g><text font-family="Aptos Narrow,Aptos Narrow_MSFontService,sans-serif" font-weight="700" font-stretch="semi-condensed" font-size="64" transform="matrix(1 0 0 1 6220.06 556)">Ease</text></g><g><text font-family="Aptos Narrow,Aptos Narrow_MSFontService,sans-serif" font-weight="700" font-stretch="semi-condensed" font-size="64" transform="matrix(1 0 0 1 6220.06 1352)">Intuitive</text></g><g clip-path="url(#clip3)"><text font-family="Aptos Narrow,Aptos Narrow_MSFontService,sans-serif" font-weight="700" font-stretch="semi-condensed" font-size="64" transform="matrix(1 0 0 1 5386.89 1793)">Productive</text></g><g><text font-family="Aptos Narrow,Aptos Narrow_MSFontService,sans-serif" font-weight="700" font-stretch="semi-condensed" font-size="64" transform="matrix(1 0 0 1 4590.11 1352)">Preferred</text></g><g><text font-family="Aptos Narrow,Aptos Narrow_MSFontService,sans-serif" font-weight="700" font-stretch="semi-condensed" font-size="64" transform="matrix(1 0 0 1 4503 556)">Recommend</text></g></g></svg>