<svg width="5219" height="1724" xmlns="http://www.w3.org/2000/svg" xmlns:xlink="http://www.w3.org/1999/xlink" xml:space="preserve" overflow="hidden"><defs><clipPath id="clip0"><rect x="1762" y="390" width="5219" height="1724"/></clipPath></defs><g clip-path="url(#clip0)" transform="translate(-1762 -390)"><rect x="4382" y="392" width="2599" height="1722" fill="#FFFFFF"/><g><path d="M5686.69 1140.54 5792.69 1201.54M5792.69 1201.54 5792.69 1324.54M5792.69 1324.54 5686.69 1386.55M5686.69 1386.55 5579.68 1324.54M5579.68 1324.54 5579.68 1201.54M5579.68 1201.54 5686.69 1140.54M5686.69 1017.53 5899.69 1140.54M5899.69 1140.54 5899.69 1386.55M5899.69 1386.55 5686.69 1509.55M5686.69 1509.55 5473.68 1386.55M5473.68 1386.55 5473.68 1140.54M5473.68 1140.54 5686.69 1017.53M5686.69 894.53 6006.7 1078.54M6006.7 1078.54 6006.7 1447.55M6006.7 1447.55 5686.69 1632.55M5686.69 1632.55 5366.68 1447.55M5366.68 1447.55 5366.68 1078.54M5366.68 1078.54 5686.69 894.53M5686.69 770.525 6112.7 1017.53M6112.7 1017.53 6112.7 1509.55M6112.7 1509.55 5686.69 1755.56M5686.69 1755.56 5260.67 1509.55M5260.67 1509.55 5260.67 1017.53M5260.67 1017.53 5686.69 770.525M5686.69 647.521 6219.7 955.531M6219.7 955.531 6219.7 1570.55M6219.7 1570.55 5686.69 1878.56M5686.69 1878.56 5153.67 1570.55M5153.67 1570.55 5153.67 955.531M5153.67 955.531 5686.69 647.521M5686.69 524.5 6325.5 894.53M6325.5 894.53 6325.5 1632.55M6325.5 1632.55 5686.69 2001.5M5686.69 2001.5 5047.5 1632.55M5047.5 1632.55 5047.5 894.53M5047.5 894.53 5686.69 524.5" stroke="#000000" stroke-width="6.875" stroke-linejoin="round" stroke-miterlimit="10" fill="none"/></g><g><path d="M5686.69 554.5 6206.7 962.532 6282.5 1606.55 5686.69 1889.5 5149.67 1573.55 5104.5 927.531Z" stroke="#7E370E" stroke-width="9.16667" stroke-linecap="round" stroke-linejoin="round" stroke-miterlimit="10" fill="#F1AB83"/></g><g><path d="M5686.69 771.5 6059.7 1047.53 6121.5 1514.55 5686.69 1683.5 5287.5 1493.55 5287.5 1032.53Z" stroke="#0A3041" stroke-width="9.16667" stroke-linejoin="round" stroke-miterlimit="10" fill="#82CAEC"/></g><g><path d="M5686.69 987.5 5912.69 1132.54 5961.5 1421.55 5686.69 1477.5 5424.5 1414.55 5469.68 1137.54Z" stroke="#0C3612" stroke-width="11.4583" stroke-linejoin="round" stroke-miterlimit="10" fill="#00B050"/></g><g><path d="M5686.69 1263.54 5686.69 524.5M5686.69 1263.54 6325.5 894.53M5686.69 1263.54 6325.5 1632.55M5686.69 1263.54 5686.69 2001.5M5686.69 1263.54 5047.5 1632.55M5686.69 1263.54 5047.67 894.53M5686.69 1263.54 5686.69 524.5" stroke="#000000" stroke-width="4.58333" stroke-linejoin="round" stroke-miterlimit="10" stroke-opacity="0.501961" fill="none"/></g><g><rect x="5674.5" y="528.5" width="28" height="28.0002" stroke="#7E370E" stroke-width="9.16667" stroke-linecap="round" stroke-linejoin="round" stroke-miterlimit="10" fill="#F1AB83"/></g><g><text fill="#0D0D0D" font-family="Aptos Narrow,Aptos Narrow_MSFontService,sans-serif" font-weight="700" font-stretch="semi-condensed" font-size="50" transform="matrix(1 0 0 1 5726.46 559)">6.76</text></g><g><rect x="6176.5" y="951.5" width="27" height="27.9998" stroke="#7E370E" stroke-width="9.16667" stroke-linecap="round" stroke-linejoin="round" stroke-miterlimit="10" fill="#F1AB83"/></g><g><text fill="#0D0D0D" font-family="Aptos Narrow,Aptos Narrow_MSFontService,sans-serif" font-weight="700" font-stretch="semi-condensed" font-size="50" transform="matrix(1 0 0 1 6228.14 982)">5.88</text></g><g><rect x="6274.5" y="1589.5" width="28" height="27.9999" stroke="#7E370E" stroke-width="9.16667" stroke-linecap="round" stroke-linejoin="round" stroke-miterlimit="10" fill="#F1AB83"/></g><g><text fill="#0D0D0D" font-family="Aptos Narrow,Aptos Narrow_MSFontService,sans-serif" font-weight="700" font-stretch="semi-condensed" font-size="50" transform="matrix(1 0 0 1 6326.32 1620)">6.59</text></g><g><rect x="5670.5" y="1878.5" width="27" height="26.9998" stroke="#7E370E" stroke-width="9.16667" stroke-linecap="round" stroke-linejoin="round" stroke-miterlimit="10" fill="#F1AB83"/></g><g><text fill="#0D0D0D" font-family="Aptos Narrow,Aptos Narrow_MSFontService,sans-serif" font-weight="700" font-stretch="semi-condensed" font-size="50" transform="matrix(1 0 0 1 5721.88 1909)">6.09</text></g><g><rect x="5137.5" y="1560.5" width="28" height="26.9998" stroke="#7E370E" stroke-width="9.16667" stroke-linecap="round" stroke-linejoin="round" stroke-miterlimit="10" fill="#F1AB83"/></g><g><text fill="#0D0D0D" font-family="Aptos Narrow,Aptos Narrow_MSFontService,sans-serif" font-weight="700" font-stretch="semi-condensed" font-size="50" transform="matrix(1 0 0 1 5189.82 1591)">6.04</text></g><g><rect x="5083.5" y="916.5" width="28" height="27.0002" stroke="#7E370E" stroke-width="9.16667" stroke-linecap="round" stroke-linejoin="round" stroke-miterlimit="10" fill="#F1AB83"/></g><g><text fill="#0D0D0D" font-family="Aptos Narrow,Aptos Narrow_MSFontService,sans-serif" font-weight="700" font-stretch="semi-condensed" font-size="50" transform="matrix(1 0 0 1 5135.46 947)">6.46</text></g><g><rect x="5670.5" y="763.5" width="27" height="28.0002" stroke="#0A3041" stroke-width="9.16667" stroke-linejoin="round" stroke-miterlimit="10" fill="#82CAEC"/></g><g><text fill="#0D0D0D" font-family="Aptos Narrow,Aptos Narrow_MSFontService,sans-serif" font-weight="700" font-stretch="semi-condensed" font-size="50" transform="matrix(1 0 0 1 5721.88 794)">5.00</text></g><g><rect x="6042.5" y="1032.5" width="28" height="27.9999" stroke="#0A3041" stroke-width="9.16667" stroke-linejoin="round" stroke-miterlimit="10" fill="#82CAEC"/></g><g><text fill="#0D0D0D" font-family="Aptos Narrow,Aptos Narrow_MSFontService,sans-serif" font-weight="700" font-stretch="semi-condensed" font-size="50" transform="matrix(1 0 0 1 6094.63 1063)">4.50</text></g><g><rect x="6100.5" y="1497.5" width="28" height="27.0001" stroke="#0A3041" stroke-width="9.16667" stroke-linejoin="round" stroke-miterlimit="10" fill="#82CAEC"/></g><g><text fill="#0D0D0D" font-family="Aptos Narrow,Aptos Narrow_MSFontService,sans-serif" font-weight="700" font-stretch="semi-condensed" font-size="50" transform="matrix(1 0 0 1 6152.22 1527)">5.08</text></g><g><rect x="5674.5" y="1667.5" width="28" height="27.9999" stroke="#0A3041" stroke-width="9.16667" stroke-linejoin="round" stroke-miterlimit="10" fill="#82CAEC"/></g><g><text fill="#0D0D0D" font-family="Aptos Narrow,Aptos Narrow_MSFontService,sans-serif" font-weight="700" font-stretch="semi-condensed" font-size="50" transform="matrix(1 0 0 1 5726.46 1698)">4.42</text></g><g><rect x="5275.5" y="1471.5" width="27" height="27.9999" stroke="#0A3041" stroke-width="9.16667" stroke-linejoin="round" stroke-miterlimit="10" fill="#82CAEC"/></g><g><text fill="#0D0D0D" font-family="Aptos Narrow,Aptos Narrow_MSFontService,sans-serif" font-weight="700" font-stretch="semi-condensed" font-size="50" transform="matrix(1 0 0 1 5327.07 1502)">4.75</text></g><g><rect x="5275.5" y="1021.5" width="27" height="27.9999" stroke="#0A3041" stroke-width="9.16667" stroke-linejoin="round" stroke-miterlimit="10" fill="#82CAEC"/></g><g><text fill="#0D0D0D" font-family="Aptos Narrow,Aptos Narrow_MSFontService,sans-serif" font-weight="700" font-stretch="semi-condensed" font-size="50" transform="matrix(1 0 0 1 5327.07 1052)">4.75</text></g><g><rect x="5670.5" y="975.5" width="27" height="26.9998" stroke="#0C3612" stroke-width="11.4583" stroke-linejoin="round" stroke-miterlimit="10" fill="#00B050"/></g><g><text fill="#0D0D0D" font-family="Aptos Narrow,Aptos Narrow_MSFontService,sans-serif" font-weight="700" font-stretch="semi-condensed" font-size="50" transform="matrix(1 0 0 1 5721.88 1006)">3.24</text></g><g><rect x="5904.5" y="1117.5" width="28" height="27.9999" stroke="#0C3612" stroke-width="11.4583" stroke-linejoin="round" stroke-miterlimit="10" fill="#00B050"/></g><g><text fill="#0D0D0D" font-family="Aptos Narrow,Aptos Narrow_MSFontService,sans-serif" font-weight="700" font-stretch="semi-condensed" font-size="50" transform="matrix(1 0 0 1 5956.55 1148)">3.12</text></g><g><rect x="5949.5" y="1404.5" width="27" height="27.9999" stroke="#0C3612" stroke-width="11.4583" stroke-linejoin="round" stroke-miterlimit="10" fill="#00B050"/></g><g><g><text fill="#0D0D0D" font-family="Aptos Narrow,Aptos Narrow_MSFontService,sans-serif" font-weight="700" font-stretch="semi-condensed" font-size="50" transform="matrix(1 0 0 1 6000.99 1435)">3.58</text></g></g><g><rect x="5674.5" y="1479.5" width="28" height="27.9999" stroke="#0C3612" stroke-width="11.4583" stroke-linejoin="round" stroke-miterlimit="10" fill="#00B050"/></g><g><text fill="#0D0D0D" font-family="Aptos Narrow,Aptos Narrow_MSFontService,sans-serif" font-weight="700" font-stretch="semi-condensed" font-size="50" transform="matrix(1 0 0 1 5726.46 1510)">2.74</text></g><g><rect x="5411.5" y="1391.5" width="28" height="27.9999" stroke="#0C3612" stroke-width="11.4583" stroke-linejoin="round" stroke-miterlimit="10" fill="#00B050"/></g><g><text fill="#0D0D0D" font-family="Aptos Narrow,Aptos Narrow_MSFontService,sans-serif" font-weight="700" font-stretch="semi-condensed" font-size="50" transform="matrix(1 0 0 1 5463.74 1422)">3.46</text></g><g><rect x="5462.5" y="1126.5" width="27" height="28.0002" stroke="#0C3612" stroke-width="11.4583" stroke-linejoin="round" stroke-miterlimit="10" fill="#00B050"/></g><g><text fill="#0D0D0D" font-family="Aptos Narrow,Aptos Narrow_MSFontService,sans-serif" font-weight="700" font-stretch="semi-condensed" font-size="50" transform="matrix(1 0 0 1 5514.1 1157)">3.04</text></g><g><text font-family="Aptos Narrow,Aptos Narrow_MSFontService,sans-serif" font-weight="700" font-stretch="semi-condensed" font-size="64" transform="matrix(1 0 0 1 5576.48 470)">Comfort</text></g><g><text font-family="Aptos Narrow,Aptos Narrow_MSFontService,sans-serif" font-weight="700" font-stretch="semi-condensed" font-size="64" transform="matrix(1 0 0 1 6351.55 897)">Ease</text></g><g><text font-family="Aptos Narrow,Aptos Narrow_MSFontService,sans-serif" font-weight="700" font-stretch="semi-condensed" font-size="64" transform="matrix(1 0 0 1 6351.55 1664)">Intuitive</text></g><g><text font-family="Aptos Narrow,Aptos Narrow_MSFontService,sans-serif" font-weight="700" font-stretch="semi-condensed" font-size="64" transform="matrix(1 0 0 1 5543.21 2091)">Productive</text></g><g><text font-family="Aptos Narrow,Aptos Narrow_MSFontService,sans-serif" font-weight="700" font-stretch="semi-condensed" font-size="64" transform="matrix(1 0 0 1 4771.25 1664)">Preferred</text></g><g><text font-family="Aptos Narrow,Aptos Narrow_MSFontService,sans-serif" font-weight="700" font-stretch="semi-condensed" font-size="64" transform="matrix(1 0 0 1 4684.15 897)">Recommend</text></g><g><rect x="6389.5" y="449.5" width="27" height="26.9998" stroke="#7E370E" stroke-width="9.16667" stroke-linecap="round" stroke-linejoin="round" stroke-miterlimit="10" fill="#F1AB83"/></g><g><text font-family="Aptos Narrow,Aptos Narrow_MSFontService,sans-serif" font-weight="700" font-stretch="semi-condensed" font-size="48" transform="matrix(1 0 0 1 6427.64 476)">Mean + Standard Deviation</text></g><g><rect x="6389.5" y="573.5" width="27" height="27.0002" stroke="#0A3041" stroke-width="9.16667" stroke-linejoin="round" stroke-miterlimit="10" fill="#82CAEC"/></g><g><text font-family="Aptos Narrow,Aptos Narrow_MSFontService,sans-serif" font-weight="700" font-stretch="semi-condensed" font-size="48" transform="matrix(1 0 0 1 6427.64 600)">Mean</text></g><g><rect x="6389.5" y="697.5" width="27" height="27.0002" stroke="#0C3612" stroke-width="11.4583" stroke-linejoin="round" stroke-miterlimit="10" fill="#00B050"/></g><g><text font-family="Aptos Narrow,Aptos Narrow_MSFontService,sans-serif" font-weight="700" font-stretch="semi-condensed" font-size="48" transform="matrix(1 0 0 1 6427.64 724)">Mean - Standard Deviation</text></g><rect x="1762" y="390" width="2634" height="1711" fill="#FFFFFF"/><g><path d="M1811.5 440.5 1811.5 1753.5M2022.57 440.5 2022.57 1753.5M2234.57 440.5 2234.57 1753.5M2445.58 440.5 2445.58 1753.5M2656.59 440.5 2656.59 1753.5M2867.59 440.5 2867.59 1753.5M3078.6 440.5 3078.6 1753.5M3289.61 440.5 3289.61 1753.5M3500.62 440.5 3500.62 1753.5M3711.62 440.5 3711.62 1753.5M3922.63 440.5 3922.63 1753.5M4133.64 440.5 4133.64 1753.5M4345.5 440.5 4345.5 1753.5" stroke="#000000" stroke-width="6.875" stroke-linejoin="round" stroke-miterlimit="10" fill="none"/></g><g><path d="M1858.06 1608.05 1976.06 1608.05 1976.06 1754 1858.06 1754ZM2070.07 1637.05 2188.07 1637.05 2188.07 1754 2070.07 1754ZM2281.07 1579.05 2399.08 1579.05 2399.08 1754 2281.07 1754ZM2492.08 1549.05 2610.09 1549.05 2610.09 1754 2492.08 1754ZM2703.09 1608.05 2821.09 1608.05 2821.09 1754 2703.09 1754ZM2914.1 1725.06 3032.1 1725.06 3032.1 1754 2914.1 1754ZM3125.1 1579.05 3243.11 1579.05 3243.11 1754 3125.1 1754ZM3336.11 1666.05 3454.11 1666.05 3454.11 1754 3336.11 1754ZM3547.12 1579.05 3665.12 1579.05 3665.12 1754 3547.12 1754ZM3758.12 1549.05 3876.13 1549.05 3876.13 1754 3758.12 1754ZM3969.13 1579.05 4087.13 1579.05 4087.13 1754 3969.13 1754ZM4181.14 1637.05 4298.14 1637.05 4298.14 1754 4181.14 1754Z" fill="#145F82"/></g><g><path d="M1858.06 1462.05 1976.06 1462.05 1976.06 1608.05 1858.06 1608.05ZM2070.07 1433.05 2188.07 1433.05 2188.07 1637.05 2070.07 1637.05ZM2281.07 1433.05 2399.08 1433.05 2399.08 1579.05 2281.07 1579.05ZM2492.08 1433.05 2610.09 1433.05 2610.09 1549.05 2492.08 1549.05ZM2703.09 1520.05 2821.09 1520.05 2821.09 1608.05 2703.09 1608.05ZM2914.1 1608.05 3032.1 1608.05 3032.1 1725.06 2914.1 1725.06ZM3125.1 1462.05 3243.11 1462.05 3243.11 1579.05 3125.1 1579.05ZM3336.11 1579.05 3454.11 1579.05 3454.11 1666.05 3336.11 1666.05ZM3547.12 1491.05 3665.12 1491.05 3665.12 1579.05 3547.12 1579.05ZM3758.12 1433.05 3876.13 1433.05 3876.13 1549.05 3758.12 1549.05ZM3969.13 1374.05 4087.13 1374.05 4087.13 1579.05 3969.13 1579.05ZM4181.14 1491.05 4298.14 1491.05 4298.14 1637.05 4181.14 1637.05Z" fill="#E87331"/></g><g><path d="M1858.06 1316.04 1976.06 1316.04 1976.06 1462.05 1858.06 1462.05ZM2070.07 1229.04 2188.07 1229.04 2188.07 1433.05 2070.07 1433.05ZM2281.07 1374.05 2399.08 1374.05 2399.08 1433.05 2281.07 1433.05ZM2492.08 1258.04 2610.09 1258.04 2610.09 1433.05 2492.08 1433.05ZM2703.09 1374.05 2821.09 1374.05 2821.09 1520.05 2703.09 1520.05ZM2914.1 1433.05 3032.1 1433.05 3032.1 1608.05 2914.1 1608.05ZM3125.1 1345.04 3243.11 1345.04 3243.11 1462.05 3125.1 1462.05ZM3336.11 1491.05 3454.11 1491.05 3454.11 1579.05 3336.11 1579.05ZM3547.12 1345.04 3665.12 1345.04 3665.12 1491.05 3547.12 1491.05ZM3758.12 1258.04 3876.13 1258.04 3876.13 1433.05 3758.12 1433.05ZM3969.13 1170.04 4087.13 1170.04 4087.13 1374.05 3969.13 1374.05ZM4181.14 1345.04 4298.14 1345.04 4298.14 1491.05 4181.14 1491.05Z" fill="#186C24"/></g><g><path d="M1858.06 1199.04 1976.06 1199.04 1976.06 1316.04 1858.06 1316.04ZM2070.07 1024.03 2188.07 1024.03 2188.07 1229.04 2070.07 1229.04ZM2281.07 1316.04 2399.08 1316.04 2399.08 1374.05 2281.07 1374.05ZM2492.08 1112.04 2610.09 1112.04 2610.09 1258.04 2492.08 1258.04ZM2703.09 1287.04 2821.09 1287.04 2821.09 1374.05 2703.09 1374.05ZM2914.1 1287.04 3032.1 1287.04 3032.1 1433.05 2914.1 1433.05ZM3125.1 1229.04 3243.11 1229.04 3243.11 1345.04 3125.1 1345.04ZM3336.11 1433.05 3454.11 1433.05 3454.11 1491.05 3336.11 1491.05ZM3547.12 1229.04 3665.12 1229.04 3665.12 1345.04 3547.12 1345.04ZM3758.12 1083.04 3876.13 1083.04 3876.13 1258.04 3758.12 1258.04ZM3969.13 966.032 4087.13 966.032 4087.13 1170.04 3969.13 1170.04ZM4181.14 1229.04 4298.14 1229.04 4298.14 1345.04 4181.14 1345.04Z" fill="#0F9ED5"/></g><g><path d="M1858.06 1053.03 1976.06 1053.03 1976.06 1199.04 1858.06 1199.04ZM2070.07 820.027 2188.07 820.027 2188.07 1024.03 2070.07 1024.03ZM2281.07 1229.04 2399.08 1229.04 2399.08 1316.04 2281.07 1316.04ZM2492.08 937.031 2610.09 937.031 2610.09 1112.04 2492.08 1112.04ZM2703.09 1199.04 2821.09 1199.04 2821.09 1287.04 2703.09 1287.04ZM2914.1 1141.04 3032.1 1141.04 3032.1 1287.04 2914.1 1287.04ZM3125.1 1112.04 3243.11 1112.04 3243.11 1229.04 3125.1 1229.04ZM3336.11 1345.04 3454.11 1345.04 3454.11 1433.05 3336.11 1433.05ZM3547.12 1083.04 3665.12 1083.04 3665.12 1229.04 3547.12 1229.04ZM3758.12 937.031 3876.13 937.031 3876.13 1083.04 3758.12 1083.04ZM3969.13 791.026 4087.13 791.026 4087.13 966.032 3969.13 966.032ZM4181.14 1083.04 4298.14 1083.04 4298.14 1229.04 4181.14 1229.04Z" fill="#A02B93"/></g><g><path d="M1858.06 878.029 1976.06 878.029 1976.06 1053.03 1858.06 1053.03ZM2070.07 616.02 2188.07 616.02 2188.07 820.027 2070.07 820.027ZM2281.07 1170.04 2399.08 1170.04 2399.08 1229.04 2281.07 1229.04ZM2492.08 762.025 2610.09 762.025 2610.09 937.031 2492.08 937.031ZM2703.09 1083.04 2821.09 1083.04 2821.09 1199.04 2703.09 1199.04ZM2914.1 995.033 3032.1 995.033 3032.1 1141.04 2914.1 1141.04ZM3125.1 1024.03 3243.11 1024.03 3243.11 1112.04 3125.1 1112.04ZM3336.11 1287.04 3454.11 1287.04 3454.11 1345.04 3336.11 1345.04ZM3547.12 937.031 3665.12 937.031 3665.12 1083.04 3547.12 1083.04ZM3758.12 791.026 3876.13 791.026 3876.13 937.031 3758.12 937.031ZM3969.13 587.019 4087.13 587.019 4087.13 791.026 3969.13 791.026ZM4181.14 937.031 4298.14 937.031 4298.14 1083.04 4181.14 1083.04Z" fill="#4EA72E"/></g><g><path d="M1811.5 1753.5 4345.5 1753.5" stroke="#000000" stroke-width="6.875" stroke-linejoin="round" stroke-miterlimit="10" fill="none" fill-rule="evenodd"/></g><g><text fill="#FFFFFF" font-family="Aptos Narrow,Aptos Narrow_MSFontService,sans-serif" font-weight="700" font-stretch="semi-condensed" font-size="46" transform="matrix(1 0 0 1 1905.89 1696)">5</text></g><g><text fill="#FFFFFF" font-family="Aptos Narrow,Aptos Narrow_MSFontService,sans-serif" font-weight="700" font-stretch="semi-condensed" font-size="46" transform="matrix(1 0 0 1 2116.99 1710)">4</text></g><g><text fill="#FFFFFF" font-family="Aptos Narrow,Aptos Narrow_MSFontService,sans-serif" font-weight="700" font-stretch="semi-condensed" font-size="46" transform="matrix(1 0 0 1 2328.09 1681)">6</text></g><g><text fill="#FFFFFF" font-family="Aptos Narrow,Aptos Narrow_MSFontService,sans-serif" font-weight="700" font-stretch="semi-condensed" font-size="46" transform="matrix(1 0 0 1 2539.19 1667)">7</text></g><g><text fill="#FFFFFF" font-family="Aptos Narrow,Aptos Narrow_MSFontService,sans-serif" font-weight="700" font-stretch="semi-condensed" font-size="46" transform="matrix(1 0 0 1 2750.29 1696)">5</text></g><g><text fill="#FFFFFF" font-family="Aptos Narrow,Aptos Narrow_MSFontService,sans-serif" font-weight="700" font-stretch="semi-condensed" font-size="46" transform="matrix(1 0 0 1 2961.4 1754)">1</text></g><g><text fill="#FFFFFF" font-family="Aptos Narrow,Aptos Narrow_MSFontService,sans-serif" font-weight="700" font-stretch="semi-condensed" font-size="46" transform="matrix(1 0 0 1 3172.5 1681)">6</text></g><g><text fill="#FFFFFF" font-family="Aptos Narrow,Aptos Narrow_MSFontService,sans-serif" font-weight="700" font-stretch="semi-condensed" font-size="46" transform="matrix(1 0 0 1 3383.6 1725)">3</text></g><g><text fill="#FFFFFF" font-family="Aptos Narrow,Aptos Narrow_MSFontService,sans-serif" font-weight="700" font-stretch="semi-condensed" font-size="46" transform="matrix(1 0 0 1 3594.7 1681)">6</text></g><g><text fill="#FFFFFF" font-family="Aptos Narrow,Aptos Narrow_MSFontService,sans-serif" font-weight="700" font-stretch="semi-condensed" font-size="46" transform="matrix(1 0 0 1 3805.8 1667)">7</text></g><g><text fill="#FFFFFF" font-family="Aptos Narrow,Aptos Narrow_MSFontService,sans-serif" font-weight="700" font-stretch="semi-condensed" font-size="46" transform="matrix(1 0 0 1 4016.91 1681)">6</text></g><g><text fill="#FFFFFF" font-family="Aptos Narrow,Aptos Narrow_MSFontService,sans-serif" font-weight="700" font-stretch="semi-condensed" font-size="46" transform="matrix(1 0 0 1 4228.01 1710)">4</text></g><g><text fill="#FFFFFF" font-family="Aptos Narrow,Aptos Narrow_MSFontService,sans-serif" font-weight="700" font-stretch="semi-condensed" font-size="46" transform="matrix(1 0 0 1 1905.89 1550)">5</text></g><g><text fill="#FFFFFF" font-family="Aptos Narrow,Aptos Narrow_MSFontService,sans-serif" font-weight="700" font-stretch="semi-condensed" font-size="46" transform="matrix(1 0 0 1 2116.99 1550)">7</text></g><g><text fill="#FFFFFF" font-family="Aptos Narrow,Aptos Narrow_MSFontService,sans-serif" font-weight="700" font-stretch="semi-condensed" font-size="46" transform="matrix(1 0 0 1 2328.09 1521)">5</text></g><g><text fill="#FFFFFF" font-family="Aptos Narrow,Aptos Narrow_MSFontService,sans-serif" font-weight="700" font-stretch="semi-condensed" font-size="46" transform="matrix(1 0 0 1 2539.19 1506)">4</text></g><g><text fill="#FFFFFF" font-family="Aptos Narrow,Aptos Narrow_MSFontService,sans-serif" font-weight="700" font-stretch="semi-condensed" font-size="46" transform="matrix(1 0 0 1 2750.29 1579)">3</text></g><g><text fill="#FFFFFF" font-family="Aptos Narrow,Aptos Narrow_MSFontService,sans-serif" font-weight="700" font-stretch="semi-condensed" font-size="46" transform="matrix(1 0 0 1 2961.4 1681)">4</text></g><g><text fill="#FFFFFF" font-family="Aptos Narrow,Aptos Narrow_MSFontService,sans-serif" font-weight="700" font-stretch="semi-condensed" font-size="46" transform="matrix(1 0 0 1 3172.5 1535)">4</text></g><g><text fill="#FFFFFF" font-family="Aptos Narrow,Aptos Narrow_MSFontService,sans-serif" font-weight="700" font-stretch="semi-condensed" font-size="46" transform="matrix(1 0 0 1 3383.6 1638)">3</text></g><g><text fill="#FFFFFF" font-family="Aptos Narrow,Aptos Narrow_MSFontService,sans-serif" font-weight="700" font-stretch="semi-condensed" font-size="46" transform="matrix(1 0 0 1 3594.7 1550)">3</text></g><g><text fill="#FFFFFF" font-family="Aptos Narrow,Aptos Narrow_MSFontService,sans-serif" font-weight="700" font-stretch="semi-condensed" font-size="46" transform="matrix(1 0 0 1 3805.8 1506)">4</text></g><g><text fill="#FFFFFF" font-family="Aptos Narrow,Aptos Narrow_MSFontService,sans-serif" font-weight="700" font-stretch="semi-condensed" font-size="46" transform="matrix(1 0 0 1 4016.91 1492)">7</text></g><g><text fill="#FFFFFF" font-family="Aptos Narrow,Aptos Narrow_MSFontService,sans-serif" font-weight="700" font-stretch="semi-condensed" font-size="46" transform="matrix(1 0 0 1 4228.01 1579)">5</text></g><g><text fill="#FFFFFF" font-family="Aptos Narrow,Aptos Narrow_MSFontService,sans-serif" font-weight="700" font-stretch="semi-condensed" font-size="46" transform="matrix(1 0 0 1 1905.89 1404)">5</text></g><g><text fill="#FFFFFF" font-family="Aptos Narrow,Aptos Narrow_MSFontService,sans-serif" font-weight="700" font-stretch="semi-condensed" font-size="46" transform="matrix(1 0 0 1 2116.99 1346)">7</text></g><g><text fill="#FFFFFF" font-family="Aptos Narrow,Aptos Narrow_MSFontService,sans-serif" font-weight="700" font-stretch="semi-condensed" font-size="46" transform="matrix(1 0 0 1 2328.09 1419)">2</text></g><g><text fill="#FFFFFF" font-family="Aptos Narrow,Aptos Narrow_MSFontService,sans-serif" font-weight="700" font-stretch="semi-condensed" font-size="46" transform="matrix(1 0 0 1 2539.19 1360)">6</text></g><g><text fill="#FFFFFF" font-family="Aptos Narrow,Aptos Narrow_MSFontService,sans-serif" font-weight="700" font-stretch="semi-condensed" font-size="46" transform="matrix(1 0 0 1 2750.29 1462)">5</text></g><g><text fill="#FFFFFF" font-family="Aptos Narrow,Aptos Narrow_MSFontService,sans-serif" font-weight="700" font-stretch="semi-condensed" font-size="46" transform="matrix(1 0 0 1 2961.4 1535)">6</text></g><g><text fill="#FFFFFF" font-family="Aptos Narrow,Aptos Narrow_MSFontService,sans-serif" font-weight="700" font-stretch="semi-condensed" font-size="46" transform="matrix(1 0 0 1 3172.5 1419)">4</text></g><g><text fill="#FFFFFF" font-family="Aptos Narrow,Aptos Narrow_MSFontService,sans-serif" font-weight="700" font-stretch="semi-condensed" font-size="46" transform="matrix(1 0 0 1 3383.6 1550)">3</text></g><g><text fill="#FFFFFF" font-family="Aptos Narrow,Aptos Narrow_MSFontService,sans-serif" font-weight="700" font-stretch="semi-condensed" font-size="46" transform="matrix(1 0 0 1 3594.7 1433)">5</text></g><g><text fill="#FFFFFF" font-family="Aptos Narrow,Aptos Narrow_MSFontService,sans-serif" font-weight="700" font-stretch="semi-condensed" font-size="46" transform="matrix(1 0 0 1 3805.8 1360)">6</text></g><g><text fill="#FFFFFF" font-family="Aptos Narrow,Aptos Narrow_MSFontService,sans-serif" font-weight="700" font-stretch="semi-condensed" font-size="46" transform="matrix(1 0 0 1 4016.91 1287)">7</text></g><g><text fill="#FFFFFF" font-family="Aptos Narrow,Aptos Narrow_MSFontService,sans-serif" font-weight="700" font-stretch="semi-condensed" font-size="46" transform="matrix(1 0 0 1 4228.01 1433)">5</text></g><g><text fill="#FFFFFF" font-family="Aptos Narrow,Aptos Narrow_MSFontService,sans-serif" font-weight="700" font-stretch="semi-condensed" font-size="46" transform="matrix(1 0 0 1 1905.89 1273)">4</text></g><g><text fill="#FFFFFF" font-family="Aptos Narrow,Aptos Narrow_MSFontService,sans-serif" font-weight="700" font-stretch="semi-condensed" font-size="46" transform="matrix(1 0 0 1 2116.99 1141)">7</text></g><g><text fill="#FFFFFF" font-family="Aptos Narrow,Aptos Narrow_MSFontService,sans-serif" font-weight="700" font-stretch="semi-condensed" font-size="46" transform="matrix(1 0 0 1 2328.09 1360)">2</text></g><g><text fill="#FFFFFF" font-family="Aptos Narrow,Aptos Narrow_MSFontService,sans-serif" font-weight="700" font-stretch="semi-condensed" font-size="46" transform="matrix(1 0 0 1 2539.19 1200)">5</text></g><g><text fill="#FFFFFF" font-family="Aptos Narrow,Aptos Narrow_MSFontService,sans-serif" font-weight="700" font-stretch="semi-condensed" font-size="46" transform="matrix(1 0 0 1 2750.29 1346)">3</text></g><g><text fill="#FFFFFF" font-family="Aptos Narrow,Aptos Narrow_MSFontService,sans-serif" font-weight="700" font-stretch="semi-condensed" font-size="46" transform="matrix(1 0 0 1 2961.4 1375)">5</text></g><g><text fill="#FFFFFF" font-family="Aptos Narrow,Aptos Narrow_MSFontService,sans-serif" font-weight="700" font-stretch="semi-condensed" font-size="46" transform="matrix(1 0 0 1 3172.5 1302)">4</text></g><g><text fill="#FFFFFF" font-family="Aptos Narrow,Aptos Narrow_MSFontService,sans-serif" font-weight="700" font-stretch="semi-condensed" font-size="46" transform="matrix(1 0 0 1 3383.6 1477)">2</text></g><g><text fill="#FFFFFF" font-family="Aptos Narrow,Aptos Narrow_MSFontService,sans-serif" font-weight="700" font-stretch="semi-condensed" font-size="46" transform="matrix(1 0 0 1 3594.7 1302)">4</text></g><g><text fill="#FFFFFF" font-family="Aptos Narrow,Aptos Narrow_MSFontService,sans-serif" font-weight="700" font-stretch="semi-condensed" font-size="46" transform="matrix(1 0 0 1 3805.8 1185)">6</text></g><g><text fill="#FFFFFF" font-family="Aptos Narrow,Aptos Narrow_MSFontService,sans-serif" font-weight="700" font-stretch="semi-condensed" font-size="46" transform="matrix(1 0 0 1 4016.91 1083)">7</text></g><g><text fill="#FFFFFF" font-family="Aptos Narrow,Aptos Narrow_MSFontService,sans-serif" font-weight="700" font-stretch="semi-condensed" font-size="46" transform="matrix(1 0 0 1 4228.01 1302)">4</text></g><g><text fill="#FFFFFF" font-family="Aptos Narrow,Aptos Narrow_MSFontService,sans-serif" font-weight="700" font-stretch="semi-condensed" font-size="46" transform="matrix(1 0 0 1 1905.89 1141)">5</text></g><g><text fill="#FFFFFF" font-family="Aptos Narrow,Aptos Narrow_MSFontService,sans-serif" font-weight="700" font-stretch="semi-condensed" font-size="46" transform="matrix(1 0 0 1 2116.99 937)">7</text></g><g><text fill="#FFFFFF" font-family="Aptos Narrow,Aptos Narrow_MSFontService,sans-serif" font-weight="700" font-stretch="semi-condensed" font-size="46" transform="matrix(1 0 0 1 2328.09 1287)">3</text></g><g><text fill="#FFFFFF" font-family="Aptos Narrow,Aptos Narrow_MSFontService,sans-serif" font-weight="700" font-stretch="semi-condensed" font-size="46" transform="matrix(1 0 0 1 2539.19 1039)">6</text></g><g><text fill="#FFFFFF" font-family="Aptos Narrow,Aptos Narrow_MSFontService,sans-serif" font-weight="700" font-stretch="semi-condensed" font-size="46" transform="matrix(1 0 0 1 2750.29 1258)">3</text></g><g><text fill="#FFFFFF" font-family="Aptos Narrow,Aptos Narrow_MSFontService,sans-serif" font-weight="700" font-stretch="semi-condensed" font-size="46" transform="matrix(1 0 0 1 2961.4 1229)">5</text></g><g><text fill="#FFFFFF" font-family="Aptos Narrow,Aptos Narrow_MSFontService,sans-serif" font-weight="700" font-stretch="semi-condensed" font-size="46" transform="matrix(1 0 0 1 3172.5 1185)">4</text></g><g><text fill="#FFFFFF" font-family="Aptos Narrow,Aptos Narrow_MSFontService,sans-serif" font-weight="700" font-stretch="semi-condensed" font-size="46" transform="matrix(1 0 0 1 3383.6 1404)">3</text></g><g><text fill="#FFFFFF" font-family="Aptos Narrow,Aptos Narrow_MSFontService,sans-serif" font-weight="700" font-stretch="semi-condensed" font-size="46" transform="matrix(1 0 0 1 3594.7 1171)">5</text></g><g><text fill="#FFFFFF" font-family="Aptos Narrow,Aptos Narrow_MSFontService,sans-serif" font-weight="700" font-stretch="semi-condensed" font-size="46" transform="matrix(1 0 0 1 3805.8 1025)">5</text></g><g><text fill="#FFFFFF" font-family="Aptos Narrow,Aptos Narrow_MSFontService,sans-serif" font-weight="700" font-stretch="semi-condensed" font-size="46" transform="matrix(1 0 0 1 4016.91 893)">6</text></g><g><text fill="#FFFFFF" font-family="Aptos Narrow,Aptos Narrow_MSFontService,sans-serif" font-weight="700" font-stretch="semi-condensed" font-size="46" transform="matrix(1 0 0 1 4228.01 1171)">5</text></g><g><text fill="#FFFFFF" font-family="Aptos Narrow,Aptos Narrow_MSFontService,sans-serif" font-weight="700" font-stretch="semi-condensed" font-size="46" transform="matrix(1 0 0 1 1905.89 981)">6</text></g><g><text fill="#FFFFFF" font-family="Aptos Narrow,Aptos Narrow_MSFontService,sans-serif" font-weight="700" font-stretch="semi-condensed" font-size="46" transform="matrix(1 0 0 1 2116.99 733)">7</text></g><g><text fill="#FFFFFF" font-family="Aptos Narrow,Aptos Narrow_MSFontService,sans-serif" font-weight="700" font-stretch="semi-condensed" font-size="46" transform="matrix(1 0 0 1 2328.09 1214)">2</text></g><g><text fill="#FFFFFF" font-family="Aptos Narrow,Aptos Narrow_MSFontService,sans-serif" font-weight="700" font-stretch="semi-condensed" font-size="46" transform="matrix(1 0 0 1 2539.19 864)">6</text></g><g><text fill="#FFFFFF" font-family="Aptos Narrow,Aptos Narrow_MSFontService,sans-serif" font-weight="700" font-stretch="semi-condensed" font-size="46" transform="matrix(1 0 0 1 2750.29 1156)">4</text></g><g><text fill="#FFFFFF" font-family="Aptos Narrow,Aptos Narrow_MSFontService,sans-serif" font-weight="700" font-stretch="semi-condensed" font-size="46" transform="matrix(1 0 0 1 2961.4 1083)">5</text></g><g><text fill="#FFFFFF" font-family="Aptos Narrow,Aptos Narrow_MSFontService,sans-serif" font-weight="700" font-stretch="semi-condensed" font-size="46" transform="matrix(1 0 0 1 3172.5 1083)">3</text></g><g><text fill="#FFFFFF" font-family="Aptos Narrow,Aptos Narrow_MSFontService,sans-serif" font-weight="700" font-stretch="semi-condensed" font-size="46" transform="matrix(1 0 0 1 3383.6 1331)">2</text></g><g><text fill="#FFFFFF" font-family="Aptos Narrow,Aptos Narrow_MSFontService,sans-serif" font-weight="700" font-stretch="semi-condensed" font-size="46" transform="matrix(1 0 0 1 3594.7 1025)">5</text></g><g><text fill="#FFFFFF" font-family="Aptos Narrow,Aptos Narrow_MSFontService,sans-serif" font-weight="700" font-stretch="semi-condensed" font-size="46" transform="matrix(1 0 0 1 3805.8 879)">5</text></g><g><text fill="#FFFFFF" font-family="Aptos Narrow,Aptos Narrow_MSFontService,sans-serif" font-weight="700" font-stretch="semi-condensed" font-size="46" transform="matrix(1 0 0 1 4016.91 704)">7</text></g><g><text fill="#FFFFFF" font-family="Aptos Narrow,Aptos Narrow_MSFontService,sans-serif" font-weight="700" font-stretch="semi-condensed" font-size="46" transform="matrix(1 0 0 1 4228.01 1025)">5</text></g><g><text font-family="Aptos Narrow,Aptos Narrow_MSFontService,sans-serif" font-weight="700" font-stretch="semi-condensed" font-size="50" transform="matrix(1 0 0 1 1901.98 1832)">1</text></g><g><text font-family="Aptos Narrow,Aptos Narrow_MSFontService,sans-serif" font-weight="700" font-stretch="semi-condensed" font-size="50" transform="matrix(1 0 0 1 2113.08 1832)">2</text></g><g><text font-family="Aptos Narrow,Aptos Narrow_MSFontService,sans-serif" font-weight="700" font-stretch="semi-condensed" font-size="50" transform="matrix(1 0 0 1 2324.18 1832)">3</text></g><g><text font-family="Aptos Narrow,Aptos Narrow_MSFontService,sans-serif" font-weight="700" font-stretch="semi-condensed" font-size="50" transform="matrix(1 0 0 1 2535.29 1832)">4</text></g><g><text font-family="Aptos Narrow,Aptos Narrow_MSFontService,sans-serif" font-weight="700" font-stretch="semi-condensed" font-size="50" transform="matrix(1 0 0 1 2746.39 1832)">5</text></g><g><text font-family="Aptos Narrow,Aptos Narrow_MSFontService,sans-serif" font-weight="700" font-stretch="semi-condensed" font-size="50" transform="matrix(1 0 0 1 2957.49 1832)">6</text></g><g><text font-family="Aptos Narrow,Aptos Narrow_MSFontService,sans-serif" font-weight="700" font-stretch="semi-condensed" font-size="50" transform="matrix(1 0 0 1 3168.59 1832)">7</text></g><g><text font-family="Aptos Narrow,Aptos Narrow_MSFontService,sans-serif" font-weight="700" font-stretch="semi-condensed" font-size="50" transform="matrix(1 0 0 1 3379.69 1832)">8</text></g><g><text font-family="Aptos Narrow,Aptos Narrow_MSFontService,sans-serif" font-weight="700" font-stretch="semi-condensed" font-size="50" transform="matrix(1 0 0 1 3590.79 1832)">9</text></g><g><text font-family="Aptos Narrow,Aptos Narrow_MSFontService,sans-serif" font-weight="700" font-stretch="semi-condensed" font-size="50" transform="matrix(1 0 0 1 3786.37 1832)">10</text></g><g><text font-family="Aptos Narrow,Aptos Narrow_MSFontService,sans-serif" font-weight="700" font-stretch="semi-condensed" font-size="50" transform="matrix(1 0 0 1 3997.47 1832)">11</text></g><g><text font-family="Aptos Narrow,Aptos Narrow_MSFontService,sans-serif" font-weight="700" font-stretch="semi-condensed" font-size="50" transform="matrix(1 0 0 1 4208.57 1832)">12</text></g><g><text font-family="Aptos Narrow,Aptos Narrow_MSFontService,sans-serif" font-weight="700" font-stretch="semi-condensed" font-size="50" transform="matrix(1 0 0 1 2843.92 1908)">PARTICIPANT NUMBER</text></g><g><rect x="2184" y="2011" width="30.0002" height="30.9999" fill="#145F82"/></g><g><text font-family="Aptos Narrow,Aptos Narrow_MSFontService,sans-serif" font-weight="700" font-stretch="semi-condensed" font-size="55" transform="matrix(1 0 0 1 2227.6 2042)">Comfort</text></g><g><rect x="2479" y="2011" width="30" height="30.9999" fill="#E87331"/></g><g><text font-family="Aptos Narrow,Aptos Narrow_MSFontService,sans-serif" font-weight="700" font-stretch="semi-condensed" font-size="55" transform="matrix(1 0 0 1 2522.47 2042)">Ease</text></g><g><rect x="2694" y="2011" width="30" height="30.9999" fill="#186C24"/></g><g><text font-family="Aptos Narrow,Aptos Narrow_MSFontService,sans-serif" font-weight="700" font-stretch="semi-condensed" font-size="55" transform="matrix(1 0 0 1 2737.41 2042)">Intuitive</text></g><g><rect x="2988" y="2011" width="30.0002" height="30.9999" fill="#0F9ED5"/></g><g><text font-family="Aptos Narrow,Aptos Narrow_MSFontService,sans-serif" font-weight="700" font-stretch="semi-condensed" font-size="55" transform="matrix(1 0 0 1 3031.35 2042)">Productive</text></g><g><rect x="3340" y="2011" width="30.0002" height="30.9999" fill="#A02B93"/></g><g><text font-family="Aptos Narrow,Aptos Narrow_MSFontService,sans-serif" font-weight="700" font-stretch="semi-condensed" font-size="55" transform="matrix(1 0 0 1 3383.31 2042)">Preferred</text></g><g><rect x="3660" y="2011" width="31" height="30.9999" fill="#4EA72E"/></g><g><text font-family="Aptos Narrow,Aptos Narrow_MSFontService,sans-serif" font-weight="700" font-stretch="semi-condensed" font-size="55" transform="matrix(1 0 0 1 3704.06 2042)">Recommend</text></g></g></svg>