<svg width="4226" height="1076" xmlns="http://www.w3.org/2000/svg" xmlns:xlink="http://www.w3.org/1999/xlink" xml:space="preserve" overflow="hidden"><defs><clipPath id="clip0"><rect x="3768" y="1182" width="4226" height="1076"/></clipPath></defs><g clip-path="url(#clip0)" transform="translate(-3768 -1182)"><rect x="5904" y="1183" width="2090" height="1072" fill="#FFFFFF"/><g><path d="M6106.5 2064.5 7912.5 2064.5" stroke="#D9D9D9" stroke-width="3.4375" stroke-linejoin="round" stroke-miterlimit="10" fill="none" fill-rule="evenodd"/></g><g><path d="M6106.5 2064.5 6106.5 2082.5M6270.71 2064.5 6270.71 2082.5M6434.71 2064.5 6434.71 2082.5M6598.72 2064.5 6598.72 2082.5M6762.72 2064.5 6762.72 2082.5M6926.73 2064.5 6926.73 2082.5M7090.73 2064.5 7090.73 2082.5M7255.74 2064.5 7255.74 2082.5M7419.74 2064.5 7419.74 2082.5M7583.75 2064.5 7583.75 2082.5M7747.75 2064.5 7747.75 2082.5M7912.5 2064.5 7912.5 2082.5" stroke="#D9D9D9" stroke-width="3.4375" stroke-linejoin="round" stroke-miterlimit="10" fill="none"/></g><g><path d="M6106 1860.21C6160.73 1761.34 6215.45 1548 6270.18 1563.58 6324.91 1579.16 6379.64 1895.4 6434.36 1953.7 6489.09 2012 6543.82 1908.72 6598.55 1913.38 6653.27 1918.05 6708 1982.24 6762.73 1981.68 6817.45 1981.13 6872.18 1931.66 6926.91 1910.07 6981.64 1888.47 7036.36 1858.74 7091.09 1852.13 7145.82 1845.51 7200.55 1879.42 7255.27 1870.37 7310 1861.32 7364.73 1786.28 7419.45 1797.82 7474.18 1809.36 7528.91 1910.34 7583.64 1939.6 7638.36 1968.87 7693.09 1982.25 7747.82 1973.39 7802.54 1964.53 7857.27 1915.42 7912 1886.43" stroke="#145F82" stroke-width="8.02083" stroke-linecap="round" stroke-linejoin="round" stroke-miterlimit="10" stroke-opacity="0.968627" fill="none"/></g><g><path d="M6088.38 1842.17 6124.38 1842.17 6124.38 1878.17 6088.38 1878.17Z" stroke="#145F82" stroke-width="3.4375" stroke-linejoin="round" stroke-miterlimit="10" fill="#145F82"/><path d="M6252.38 1545.17 6288.38 1545.17 6288.38 1581.17 6252.38 1581.17Z" stroke="#145F82" stroke-width="3.4375" stroke-linejoin="round" stroke-miterlimit="10" fill="#145F82"/><path d="M6416.38 1935.17 6452.38 1935.17 6452.38 1971.17 6416.38 1971.17Z" stroke="#145F82" stroke-width="3.4375" stroke-linejoin="round" stroke-miterlimit="10" fill="#145F82"/><path d="M6580.38 1895.17 6616.38 1895.17 6616.38 1931.17 6580.38 1931.17Z" stroke="#145F82" stroke-width="3.4375" stroke-linejoin="round" stroke-miterlimit="10" fill="#145F82"/><path d="M6744.38 1963.17 6780.38 1963.17 6780.38 1999.17 6744.38 1999.17Z" stroke="#145F82" stroke-width="3.4375" stroke-linejoin="round" stroke-miterlimit="10" fill="#145F82"/><path d="M6908.38 1892.17 6944.38 1892.17 6944.38 1928.17 6908.38 1928.17Z" stroke="#145F82" stroke-width="3.4375" stroke-linejoin="round" stroke-miterlimit="10" fill="#145F82"/><path d="M7073.38 1834.17 7109.38 1834.17 7109.38 1870.17 7073.38 1870.17Z" stroke="#145F82" stroke-width="3.4375" stroke-linejoin="round" stroke-miterlimit="10" fill="#145F82"/><path d="M7237.38 1852.17 7273.38 1852.17 7273.38 1888.17 7237.38 1888.17Z" stroke="#145F82" stroke-width="3.4375" stroke-linejoin="round" stroke-miterlimit="10" fill="#145F82"/><path d="M7401.38 1779.17 7437.38 1779.17 7437.38 1815.17 7401.38 1815.17Z" stroke="#145F82" stroke-width="3.4375" stroke-linejoin="round" stroke-miterlimit="10" fill="#145F82"/><path d="M7565.38 1921.17 7601.38 1921.17 7601.38 1957.17 7565.38 1957.17Z" stroke="#145F82" stroke-width="3.4375" stroke-linejoin="round" stroke-miterlimit="10" fill="#145F82"/><path d="M7729.38 1955.17 7765.38 1955.17 7765.38 1991.17 7729.38 1991.17Z" stroke="#145F82" stroke-width="3.4375" stroke-linejoin="round" stroke-miterlimit="10" fill="#145F82"/><path d="M7894.38 1868.17 7930.38 1868.17 7930.38 1904.17 7894.38 1904.17Z" stroke="#145F82" stroke-width="3.4375" stroke-linejoin="round" stroke-miterlimit="10" fill="#145F82"/></g><g><path d="M6124.88 1878.67 6087.88 1841.67M6106.38 1841.67 6106.38 1878.67M6087.88 1878.67 6124.88 1841.67" stroke="#145F82" stroke-width="3.4375" stroke-linejoin="round" stroke-miterlimit="10" fill="#145F82"/><path d="M6288.88 1581.67 6251.88 1544.67M6270.38 1544.67 6270.38 1581.67M6251.88 1581.67 6288.88 1544.67" stroke="#145F82" stroke-width="3.4375" stroke-linejoin="round" stroke-miterlimit="10" fill="#145F82"/><path d="M6452.88 1971.67 6415.88 1934.67M6434.38 1934.67 6434.38 1971.67M6415.88 1971.67 6452.88 1934.67" stroke="#145F82" stroke-width="3.4375" stroke-linejoin="round" stroke-miterlimit="10" fill="#145F82"/><path d="M6616.88 1931.67 6579.88 1894.67M6598.38 1894.67 6598.38 1931.67M6579.88 1931.67 6616.88 1894.67" stroke="#145F82" stroke-width="3.4375" stroke-linejoin="round" stroke-miterlimit="10" fill="#145F82"/><path d="M6780.88 1999.67 6743.88 1962.67M6762.38 1962.67 6762.38 1999.67M6743.88 1999.67 6780.88 1962.67" stroke="#145F82" stroke-width="3.4375" stroke-linejoin="round" stroke-miterlimit="10" fill="#145F82"/><path d="M6944.88 1928.67 6907.88 1891.67M6926.38 1891.67 6926.38 1928.67M6907.88 1928.67 6944.88 1891.67" stroke="#145F82" stroke-width="3.4375" stroke-linejoin="round" stroke-miterlimit="10" fill="#145F82"/><path d="M7109.88 1870.67 7072.88 1833.67M7091.38 1833.67 7091.38 1870.67M7072.88 1870.67 7109.88 1833.67" stroke="#145F82" stroke-width="3.4375" stroke-linejoin="round" stroke-miterlimit="10" fill="#145F82"/><path d="M7273.88 1888.67 7236.88 1851.67M7255.38 1851.67 7255.38 1888.67M7236.88 1888.67 7273.88 1851.67" stroke="#145F82" stroke-width="3.4375" stroke-linejoin="round" stroke-miterlimit="10" fill="#145F82"/><path d="M7437.88 1815.67 7400.88 1778.67M7419.38 1778.67 7419.38 1815.67M7400.88 1815.67 7437.88 1778.67" stroke="#145F82" stroke-width="3.4375" stroke-linejoin="round" stroke-miterlimit="10" fill="#145F82"/><path d="M7601.88 1957.67 7564.88 1920.67M7583.38 1920.67 7583.38 1957.67M7564.88 1957.67 7601.88 1920.67" stroke="#145F82" stroke-width="3.4375" stroke-linejoin="round" stroke-miterlimit="10" fill="#145F82"/><path d="M7765.88 1991.67 7728.88 1954.67M7747.38 1954.67 7747.38 1991.67M7728.88 1991.67 7765.88 1954.67" stroke="#145F82" stroke-width="3.4375" stroke-linejoin="round" stroke-miterlimit="10" fill="#145F82"/><path d="M7930.88 1904.67 7893.88 1867.67M7912.38 1867.67 7912.38 1904.67M7893.88 1904.67 7930.88 1867.67" stroke="#145F82" stroke-width="3.4375" stroke-linejoin="round" stroke-miterlimit="10" fill="#145F82"/></g><g><path d="M6106 1860.33C6160.73 1833.98 6215.45 1763 6270.18 1781.27 6324.91 1799.54 6379.64 1969.41 6434.36 1969.94 6489.09 1970.48 6543.82 1781.75 6598.55 1784.49 6653.27 1787.22 6708 1969.72 6762.73 1986.36 6817.45 2003 6872.18 1915.05 6926.91 1884.33 6981.64 1853.62 7036.36 1791.1 7091.09 1802.05 7145.82 1812.99 7200.55 1933.34 7255.27 1950 7310 1966.65 7364.73 1912.23 7419.45 1902 7474.18 1891.76 7528.91 1880.59 7583.64 1888.59 7638.36 1896.59 7693.09 1964.96 7747.82 1950 7802.54 1935.03 7857.27 1849.22 7912 1798.83" stroke="#E87331" stroke-width="8.02083" stroke-linecap="round" stroke-linejoin="round" stroke-miterlimit="10" fill="none"/></g><g><path d="M6106.38 1842.17 6124.38 1878.17 6088.38 1878.17Z" stroke="#E87331" stroke-width="3.4375" stroke-linejoin="round" stroke-miterlimit="10" fill="#E87331"/><path d="M6270.38 1763.17 6288.38 1799.17 6252.38 1799.17Z" stroke="#E87331" stroke-width="3.4375" stroke-linejoin="round" stroke-miterlimit="10" fill="#E87331"/><path d="M6434.38 1951.17 6452.38 1987.17 6416.38 1987.17Z" stroke="#E87331" stroke-width="3.4375" stroke-linejoin="round" stroke-miterlimit="10" fill="#E87331"/><path d="M6598.38 1766.17 6616.38 1802.17 6580.38 1802.17Z" stroke="#E87331" stroke-width="3.4375" stroke-linejoin="round" stroke-miterlimit="10" fill="#E87331"/><path d="M6762.38 1968.17 6780.38 2004.17 6744.38 2004.17Z" stroke="#E87331" stroke-width="3.4375" stroke-linejoin="round" stroke-miterlimit="10" fill="#E87331"/><path d="M6926.38 1866.17 6944.38 1902.17 6908.38 1902.17Z" stroke="#E87331" stroke-width="3.4375" stroke-linejoin="round" stroke-miterlimit="10" fill="#E87331"/><path d="M7091.38 1784.17 7109.38 1820.17 7073.38 1820.17Z" stroke="#E87331" stroke-width="3.4375" stroke-linejoin="round" stroke-miterlimit="10" fill="#E87331"/><path d="M7255.38 1931.17 7273.38 1967.17 7237.38 1967.17Z" stroke="#E87331" stroke-width="3.4375" stroke-linejoin="round" stroke-miterlimit="10" fill="#E87331"/><path d="M7419.38 1884.17 7437.38 1920.17 7401.38 1920.17Z" stroke="#E87331" stroke-width="3.4375" stroke-linejoin="round" stroke-miterlimit="10" fill="#E87331"/><path d="M7583.38 1870.17 7601.38 1906.17 7565.38 1906.17Z" stroke="#E87331" stroke-width="3.4375" stroke-linejoin="round" stroke-miterlimit="10" fill="#E87331"/><path d="M7747.38 1931.17 7765.38 1967.17 7729.38 1967.17Z" stroke="#E87331" stroke-width="3.4375" stroke-linejoin="round" stroke-miterlimit="10" fill="#E87331"/><path d="M7912.38 1781.17 7930.38 1817.17 7894.38 1817.17Z" stroke="#E87331" stroke-width="3.4375" stroke-linejoin="round" stroke-miterlimit="10" fill="#E87331"/></g><g><path d="M6106 1655.98C6160.73 1530.91 6215.45 1247 6270.18 1280.78 6324.91 1314.56 6379.64 1799.85 6434.36 1858.64 6489.09 1917.43 6543.82 1626.12 6598.55 1633.5 6653.27 1640.89 6708 1886.93 6762.73 1902.97 6817.45 1919 6872.18 1781.9 6926.91 1729.71 6981.64 1677.52 7036.36 1585.5 7091.09 1589.8 7145.82 1594.1 7200.55 1747.94 7255.27 1755.5 7310 1763.06 7364.73 1633.83 7419.45 1635.16 7474.18 1636.49 7528.91 1726.26 7583.64 1763.47 7638.36 1800.68 7693.09 1882.2 7747.82 1858.44 7802.54 1834.67 7857.27 1700.06 7912 1620.87" stroke="#186C24" stroke-width="8.02083" stroke-linecap="round" stroke-linejoin="round" stroke-miterlimit="10" fill="none"/></g><g><path d="M6106.38 1637.17 6124.38 1655.17 6106.38 1673.17 6088.38 1655.17Z" stroke="#186C24" stroke-width="3.4375" stroke-linejoin="round" stroke-miterlimit="10" fill="#186C24"/><path d="M6270.38 1262.17 6288.38 1280.17 6270.38 1298.17 6252.38 1280.17Z" stroke="#186C24" stroke-width="3.4375" stroke-linejoin="round" stroke-miterlimit="10" fill="#186C24"/><path d="M6434.38 1840.17 6452.38 1858.17 6434.38 1876.17 6416.38 1858.17Z" stroke="#186C24" stroke-width="3.4375" stroke-linejoin="round" stroke-miterlimit="10" fill="#186C24"/><path d="M6598.38 1615.17 6616.38 1633.17 6598.38 1651.17 6580.38 1633.17Z" stroke="#186C24" stroke-width="3.4375" stroke-linejoin="round" stroke-miterlimit="10" fill="#186C24"/><path d="M6762.38 1885.17 6780.38 1903.17 6762.38 1921.17 6744.38 1903.17Z" stroke="#186C24" stroke-width="3.4375" stroke-linejoin="round" stroke-miterlimit="10" fill="#186C24"/><path d="M6926.38 1711.17 6944.38 1729.17 6926.38 1747.17 6908.38 1729.17Z" stroke="#186C24" stroke-width="3.4375" stroke-linejoin="round" stroke-miterlimit="10" fill="#186C24"/><path d="M7091.38 1571.17 7109.38 1589.17 7091.38 1607.17 7073.38 1589.17Z" stroke="#186C24" stroke-width="3.4375" stroke-linejoin="round" stroke-miterlimit="10" fill="#186C24"/><path d="M7255.38 1737.17 7273.38 1755.17 7255.38 1773.17 7237.38 1755.17Z" stroke="#186C24" stroke-width="3.4375" stroke-linejoin="round" stroke-miterlimit="10" fill="#186C24"/><path d="M7419.38 1617.17 7437.38 1635.17 7419.38 1653.17 7401.38 1635.17Z" stroke="#186C24" stroke-width="3.4375" stroke-linejoin="round" stroke-miterlimit="10" fill="#186C24"/><path d="M7583.38 1745.17 7601.38 1763.17 7583.38 1781.17 7565.38 1763.17Z" stroke="#186C24" stroke-width="3.4375" stroke-linejoin="round" stroke-miterlimit="10" fill="#186C24"/><path d="M7747.38 1840.17 7765.38 1858.17 7747.38 1876.17 7729.38 1858.17Z" stroke="#186C24" stroke-width="3.4375" stroke-linejoin="round" stroke-miterlimit="10" fill="#186C24"/><path d="M7912.38 1602.17 7930.38 1620.17 7912.38 1638.17 7894.38 1620.17Z" stroke="#186C24" stroke-width="3.4375" stroke-linejoin="round" stroke-miterlimit="10" fill="#186C24"/></g><g><path d="M6106.5 1860.5 6079.5 1780.5" stroke="#A6A6A6" stroke-width="3.4375" stroke-linejoin="round" stroke-miterlimit="10" fill="none"/></g><g><path d="M6270.5 1563.5 6271.5 1520.5" stroke="#A6A6A6" stroke-width="3.4375" stroke-linejoin="round" stroke-miterlimit="10" fill="none"/></g><g><path d="M6598.5 1913.5 6600.5 1937.5" stroke="#A6A6A6" stroke-width="3.4375" stroke-linejoin="round" stroke-miterlimit="10" fill="none"/></g><g><path d="M6762.5 1981.5 6821.5 1952.5" stroke="#A6A6A6" stroke-width="3.4375" stroke-linejoin="round" stroke-miterlimit="10" fill="none"/></g><g><path d="M7255.5 1870.5 7250.5 1832.5" stroke="#A6A6A6" stroke-width="3.4375" stroke-linejoin="round" stroke-miterlimit="10" fill="none"/></g><g><path d="M7419.5 1797.5 7430.5 1753.5" stroke="#A6A6A6" stroke-width="3.4375" stroke-linejoin="round" stroke-miterlimit="10" fill="none"/></g><g><text fill="#215F9A" font-family="Aptos Narrow,Aptos Narrow_MSFontService,sans-serif" font-weight="700" font-stretch="semi-condensed" font-size="50" transform="matrix(1 0 0 1 6027.98 1759)">1974</text></g><g><text fill="#215F9A" font-family="Aptos Narrow,Aptos Narrow_MSFontService,sans-serif" font-weight="700" font-stretch="semi-condensed" font-size="50" transform="matrix(1 0 0 1 6220.19 1499)">4836</text></g><g><text fill="#215F9A" font-family="Aptos Narrow,Aptos Narrow_MSFontService,sans-serif" font-weight="700" font-stretch="semi-condensed" font-size="50" transform="matrix(1 0 0 1 6421.2 1918)">1072</text></g><g><text fill="#215F9A" font-family="Aptos Narrow,Aptos Narrow_MSFontService,sans-serif" font-weight="700" font-stretch="semi-condensed" font-size="50" transform="matrix(1 0 0 1 6549.43 1992)">1461</text></g><g><text fill="#215F9A" font-family="Aptos Narrow,Aptos Narrow_MSFontService,sans-serif" font-weight="700" font-stretch="semi-condensed" font-size="50" transform="matrix(1 0 0 1 6782.79 1931)">802</text></g><g><text fill="#215F9A" font-family="Aptos Narrow,Aptos Narrow_MSFontService,sans-serif" font-weight="700" font-stretch="semi-condensed" font-size="50" transform="matrix(1 0 0 1 6875.84 1996)">1493</text></g><g><text fill="#215F9A" font-family="Aptos Narrow,Aptos Narrow_MSFontService,sans-serif" font-weight="700" font-stretch="semi-condensed" font-size="50" transform="matrix(1 0 0 1 7040.02 1938)">2052</text></g><g><text fill="#215F9A" font-family="Aptos Narrow,Aptos Narrow_MSFontService,sans-serif" font-weight="700" font-stretch="semi-condensed" font-size="50" transform="matrix(1 0 0 1 7199.45 1811)">1876</text></g><g><text fill="#215F9A" font-family="Aptos Narrow,Aptos Narrow_MSFontService,sans-serif" font-weight="700" font-stretch="semi-condensed" font-size="50" transform="matrix(1 0 0 1 7379.49 1732)">2576</text></g><g><text fill="#215F9A" font-family="Aptos Narrow,Aptos Narrow_MSFontService,sans-serif" font-weight="700" font-stretch="semi-condensed" font-size="50" transform="matrix(1 0 0 1 7532.56 2026)">1208</text></g><g><text fill="#215F9A" font-family="Aptos Narrow,Aptos Narrow_MSFontService,sans-serif" font-weight="700" font-stretch="semi-condensed" font-size="50" transform="matrix(1 0 0 1 7709.51 2059)">882</text></g><g><text fill="#215F9A" font-family="Aptos Narrow,Aptos Narrow_MSFontService,sans-serif" font-weight="700" font-stretch="semi-condensed" font-size="50" transform="matrix(1 0 0 1 7860.91 1973)">1721</text></g><g><text fill="#BE5215" font-family="Aptos Narrow,Aptos Narrow_MSFontService,sans-serif" font-weight="700" font-stretch="semi-condensed" font-size="50" transform="matrix(1 0 0 1 6093.1 1931)">1973</text></g><g><text fill="#BE5215" font-family="Aptos Narrow,Aptos Narrow_MSFontService,sans-serif" font-weight="700" font-stretch="semi-condensed" font-size="50" transform="matrix(1 0 0 1 6219.12 1728)">2734</text></g><g><text fill="#BE5215" font-family="Aptos Narrow,Aptos Narrow_MSFontService,sans-serif" font-weight="700" font-stretch="semi-condensed" font-size="50" transform="matrix(1 0 0 1 6415.77 2049)">918</text></g><g><text fill="#BE5215" font-family="Aptos Narrow,Aptos Narrow_MSFontService,sans-serif" font-weight="700" font-stretch="semi-condensed" font-size="50" transform="matrix(1 0 0 1 6547.48 1731)">2703</text></g><g><text fill="#BE5215" font-family="Aptos Narrow,Aptos Narrow_MSFontService,sans-serif" font-weight="700" font-stretch="semi-condensed" font-size="50" transform="matrix(1 0 0 1 6764.37 2044)">760</text></g><g><text fill="#BE5215" font-family="Aptos Narrow,Aptos Narrow_MSFontService,sans-serif" font-weight="700" font-stretch="semi-condensed" font-size="50" transform="matrix(1 0 0 1 6875.84 1831)">1742</text></g><g><text fill="#BE5215" font-family="Aptos Narrow,Aptos Narrow_MSFontService,sans-serif" font-weight="700" font-stretch="semi-condensed" font-size="50" transform="matrix(1 0 0 1 7040.02 1749)">2534</text></g><g><text fill="#BE5215" font-family="Aptos Narrow,Aptos Narrow_MSFontService,sans-serif" font-weight="700" font-stretch="semi-condensed" font-size="50" transform="matrix(1 0 0 1 7219.01 2040)">1110</text></g><g><text fill="#BE5215" font-family="Aptos Narrow,Aptos Narrow_MSFontService,sans-serif" font-weight="700" font-stretch="semi-condensed" font-size="50" transform="matrix(1 0 0 1 7390.59 2005)">1572</text></g><g><text fill="#BE5215" font-family="Aptos Narrow,Aptos Narrow_MSFontService,sans-serif" font-weight="700" font-stretch="semi-condensed" font-size="50" transform="matrix(1 0 0 1 7532.56 1835)">1701</text></g><g><text fill="#BE5215" font-family="Aptos Narrow,Aptos Narrow_MSFontService,sans-serif" font-weight="700" font-stretch="semi-condensed" font-size="50" transform="matrix(1 0 0 1 7696.73 1915)">1110</text></g><g><text fill="#BE5215" font-family="Aptos Narrow,Aptos Narrow_MSFontService,sans-serif" font-weight="700" font-stretch="semi-condensed" font-size="50" transform="matrix(1 0 0 1 7860.91 1746)">2565</text></g><g><path d="M6106.5 1655.5 6069.5 1628.5" stroke="#A6A6A6" stroke-width="3.4375" stroke-linejoin="round" stroke-miterlimit="10" fill="none"/></g><g><path d="M6434.5 1858.5 6452.5 1771.5" stroke="#A6A6A6" stroke-width="3.4375" stroke-linejoin="round" stroke-miterlimit="10" fill="none"/></g><g><text fill="#186C24" font-family="Aptos Narrow,Aptos Narrow_MSFontService,sans-serif" font-weight="700" font-stretch="semi-condensed" font-size="50" transform="matrix(1 0 0 1 6018.28 1607)">3947</text></g><g><text fill="#186C24" font-family="Aptos Narrow,Aptos Narrow_MSFontService,sans-serif" font-weight="700" font-stretch="semi-condensed" font-size="50" transform="matrix(1 0 0 1 6219.12 1237)">7570</text></g><g><text fill="#186C24" font-family="Aptos Narrow,Aptos Narrow_MSFontService,sans-serif" font-weight="700" font-stretch="semi-condensed" font-size="50" transform="matrix(1 0 0 1 6401.64 1750)">1990</text></g><g><text fill="#186C24" font-family="Aptos Narrow,Aptos Narrow_MSFontService,sans-serif" font-weight="700" font-stretch="semi-condensed" font-size="50" transform="matrix(1 0 0 1 6547.48 1580)">4164</text></g><g><text fill="#186C24" font-family="Aptos Narrow,Aptos Narrow_MSFontService,sans-serif" font-weight="700" font-stretch="semi-condensed" font-size="50" transform="matrix(1 0 0 1 6711.66 1850)">1562</text></g><g><text fill="#186C24" font-family="Aptos Narrow,Aptos Narrow_MSFontService,sans-serif" font-weight="700" font-stretch="semi-condensed" font-size="50" transform="matrix(1 0 0 1 6875.84 1676)">3235</text></g><g><text fill="#186C24" font-family="Aptos Narrow,Aptos Narrow_MSFontService,sans-serif" font-weight="700" font-stretch="semi-condensed" font-size="50" transform="matrix(1 0 0 1 7040.02 1536)">4586</text></g><g><text fill="#186C24" font-family="Aptos Narrow,Aptos Narrow_MSFontService,sans-serif" font-weight="700" font-stretch="semi-condensed" font-size="50" transform="matrix(1 0 0 1 7204.2 1702)">2986</text></g><g><text fill="#186C24" font-family="Aptos Narrow,Aptos Narrow_MSFontService,sans-serif" font-weight="700" font-stretch="semi-condensed" font-size="50" transform="matrix(1 0 0 1 7368.38 1582)">4148</text></g><g><text fill="#186C24" font-family="Aptos Narrow,Aptos Narrow_MSFontService,sans-serif" font-weight="700" font-stretch="semi-condensed" font-size="50" transform="matrix(1 0 0 1 7532.56 1710)">2909</text></g><g><text fill="#186C24" font-family="Aptos Narrow,Aptos Narrow_MSFontService,sans-serif" font-weight="700" font-stretch="semi-condensed" font-size="50" transform="matrix(1 0 0 1 7696.73 1805)">1992</text></g><g><text fill="#186C24" font-family="Aptos Narrow,Aptos Narrow_MSFontService,sans-serif" font-weight="700" font-stretch="semi-condensed" font-size="50" transform="matrix(1 0 0 1 7860.91 1567)">4286</text></g><g><text font-family="Aptos Narrow,Aptos Narrow_MSFontService,sans-serif" font-weight="700" font-stretch="semi-condensed" font-size="55" transform="matrix(1 0 0 1 6089.37 2151)">1</text></g><g><text font-family="Aptos Narrow,Aptos Narrow_MSFontService,sans-serif" font-weight="700" font-stretch="semi-condensed" font-size="55" transform="matrix(1 0 0 1 6253.55 2151)">2</text></g><g><text font-family="Aptos Narrow,Aptos Narrow_MSFontService,sans-serif" font-weight="700" font-stretch="semi-condensed" font-size="55" transform="matrix(1 0 0 1 6417.72 2151)">3</text></g><g><text font-family="Aptos Narrow,Aptos Narrow_MSFontService,sans-serif" font-weight="700" font-stretch="semi-condensed" font-size="55" transform="matrix(1 0 0 1 6581.9 2151)">4</text></g><g><text font-family="Aptos Narrow,Aptos Narrow_MSFontService,sans-serif" font-weight="700" font-stretch="semi-condensed" font-size="55" transform="matrix(1 0 0 1 6746.08 2151)">5</text></g><g><text font-family="Aptos Narrow,Aptos Narrow_MSFontService,sans-serif" font-weight="700" font-stretch="semi-condensed" font-size="55" transform="matrix(1 0 0 1 6910.26 2151)">6</text></g><g><text font-family="Aptos Narrow,Aptos Narrow_MSFontService,sans-serif" font-weight="700" font-stretch="semi-condensed" font-size="55" transform="matrix(1 0 0 1 7074.44 2151)">7</text></g><g><text font-family="Aptos Narrow,Aptos Narrow_MSFontService,sans-serif" font-weight="700" font-stretch="semi-condensed" font-size="55" transform="matrix(1 0 0 1 7238.62 2151)">8</text></g><g><text font-family="Aptos Narrow,Aptos Narrow_MSFontService,sans-serif" font-weight="700" font-stretch="semi-condensed" font-size="55" transform="matrix(1 0 0 1 7402.8 2151)">9</text></g><g><text font-family="Aptos Narrow,Aptos Narrow_MSFontService,sans-serif" font-weight="700" font-stretch="semi-condensed" font-size="55" transform="matrix(1 0 0 1 7550.29 2151)">10</text></g><g><text font-family="Aptos Narrow,Aptos Narrow_MSFontService,sans-serif" font-weight="700" font-stretch="semi-condensed" font-size="55" transform="matrix(1 0 0 1 7714.47 2151)">11</text></g><g><text font-family="Aptos Narrow,Aptos Narrow_MSFontService,sans-serif" font-weight="700" font-stretch="semi-condensed" font-size="55" transform="matrix(1 0 0 1 7878.65 2151)">12</text></g><g><text font-family="Aptos Narrow,Aptos Narrow_MSFontService,sans-serif" font-weight="700" font-stretch="semi-condensed" font-size="55" transform="matrix(6.12323e-17 -1 1 6.12323e-17 5992.61 1802)">TIME IN SECONDS</text></g><g><text font-family="Aptos Narrow,Aptos Narrow_MSFontService,sans-serif" font-weight="700" font-stretch="semi-condensed" font-size="55" transform="matrix(1 0 0 1 6777.45 2232)">PARTICIPANTS</text></g><g><path d="M6457 1254 6545 1254" stroke="#145F82" stroke-width="8.02083" stroke-linecap="round" stroke-linejoin="round" stroke-miterlimit="10" stroke-opacity="0.968627" fill="none" fill-rule="evenodd"/></g><g><path d="M6487.71 1241.54 6513.71 1241.54 6513.71 1267.54 6487.71 1267.54Z" stroke="#145F82" stroke-width="3.4375" stroke-linejoin="round" stroke-miterlimit="10" fill="#145F82"/></g><g><path d="M6513.5 1267.5 6486.5 1240.5M6500.71 1240.5 6500.71 1267.5M6486.5 1267.5 6513.5 1240.5" stroke="#145F82" stroke-width="3.4375" stroke-linejoin="round" stroke-miterlimit="10" fill="#145F82"/></g><g><text font-family="Aptos Narrow,Aptos Narrow_MSFontService,sans-serif" font-weight="700" font-stretch="semi-condensed" font-size="50" transform="matrix(1 0 0 1 6554.26 1268)">C Time</text></g><g><path d="M6756 1254 6844 1254" stroke="#E87331" stroke-width="8.02083" stroke-linecap="round" stroke-linejoin="round" stroke-miterlimit="10" fill="none" fill-rule="evenodd"/></g><g><path d="M6799.5 1241.5 6812.5 1267.5 6786.5 1267.5Z" stroke="#E87331" stroke-width="3.4375" stroke-linejoin="round" stroke-miterlimit="10" fill="#E87331"/></g><g><text font-family="Aptos Narrow,Aptos Narrow_MSFontService,sans-serif" font-weight="700" font-stretch="semi-condensed" font-size="50" transform="matrix(1 0 0 1 6852.83 1268)">UFCS Time</text></g><g><path d="M7137 1254 7225 1254" stroke="#186C24" stroke-width="8.02083" stroke-linecap="round" stroke-linejoin="round" stroke-miterlimit="10" fill="none" fill-rule="evenodd"/></g><g><path d="M7180.5 1241.5 7193.5 1254.5 7180.5 1267.5 7167.5 1254.5Z" stroke="#186C24" stroke-width="3.4375" stroke-linejoin="round" stroke-miterlimit="10" fill="#186C24"/></g><g><text font-family="Aptos Narrow,Aptos Narrow_MSFontService,sans-serif" font-weight="700" font-stretch="semi-condensed" font-size="50" transform="matrix(1 0 0 1 7233.92 1268)">Total  Time</text></g><rect x="3768" y="1183" width="2133" height="1075" fill="#FFFFFF"/><g><path d="M3973.5 2067.5 5817.5 2067.5" stroke="#D9D9D9" stroke-width="3.4375" stroke-linejoin="round" stroke-miterlimit="10" fill="none" fill-rule="evenodd"/></g><g><path d="M3973.5 2067.5 3973.5 2084.5M4141.64 2067.5 4141.64 2084.5M4308.64 2067.5 4308.64 2084.5M4476.65 2067.5 4476.65 2084.5M4644.65 2067.5 4644.65 2084.5M4811.66 2067.5 4811.66 2084.5M4979.66 2067.5 4979.66 2084.5M5146.67 2067.5 5146.67 2084.5M5314.67 2067.5 5314.67 2084.5M5482.68 2067.5 5482.68 2084.5M5649.69 2067.5 5649.69 2084.5M5817.5 2067.5 5817.5 2084.5" stroke="#D9D9D9" stroke-width="3.4375" stroke-linejoin="round" stroke-miterlimit="10" fill="none"/></g><g><path d="M3974 1784.65C4029.88 1750.6 4085.76 1675 4141.64 1682.52 4197.51 1690.04 4253.39 1790.98 4309.27 1829.77 4365.15 1868.56 4421.03 1909.73 4476.91 1915.27 4532.79 1920.81 4588.67 1865.4 4644.55 1863.02 4700.42 1860.65 4756.3 1909.33 4812.18 1901.02 4868.06 1892.71 4923.94 1806.42 4979.82 1813.15 5035.7 1819.88 5091.58 1922.79 5147.45 1941.4 5203.33 1960 5259.21 1940.6 5315.09 1924.77 5370.97 1908.94 5426.85 1844.02 5482.73 1846.4 5538.61 1848.77 5594.48 1930.31 5650.36 1939.02 5706.24 1947.73 5762.12 1912.1 5818 1898.65" stroke="#145F82" stroke-width="8.02083" stroke-linecap="round" stroke-linejoin="round" stroke-miterlimit="10" stroke-opacity="0.968627" fill="none"/></g><g><path d="M3956 1766 3992 1766 3992 1802 3956 1802Z" stroke="#145F82" stroke-width="3.4375" stroke-linejoin="round" stroke-miterlimit="10" fill="#145F82"/><path d="M4124 1664 4160 1664 4160 1700 4124 1700Z" stroke="#145F82" stroke-width="3.4375" stroke-linejoin="round" stroke-miterlimit="10" fill="#145F82"/><path d="M4292 1811 4328 1811 4328 1847 4292 1847Z" stroke="#145F82" stroke-width="3.4375" stroke-linejoin="round" stroke-miterlimit="10" fill="#145F82"/><path d="M4459 1897 4495 1897 4495 1933 4459 1933Z" stroke="#145F82" stroke-width="3.4375" stroke-linejoin="round" stroke-miterlimit="10" fill="#145F82"/><path d="M4627 1844 4663 1844 4663 1880 4627 1880Z" stroke="#145F82" stroke-width="3.4375" stroke-linejoin="round" stroke-miterlimit="10" fill="#145F82"/><path d="M4794 1882 4830 1882 4830 1918 4794 1918Z" stroke="#145F82" stroke-width="3.4375" stroke-linejoin="round" stroke-miterlimit="10" fill="#145F82"/><path d="M4962 1795 4998 1795 4998 1831 4962 1831Z" stroke="#145F82" stroke-width="3.4375" stroke-linejoin="round" stroke-miterlimit="10" fill="#145F82"/><path d="M5130 1923 5166 1923 5166 1959 5130 1959Z" stroke="#145F82" stroke-width="3.4375" stroke-linejoin="round" stroke-miterlimit="10" fill="#145F82"/><path d="M5297 1906 5333 1906 5333 1942 5297 1942Z" stroke="#145F82" stroke-width="3.4375" stroke-linejoin="round" stroke-miterlimit="10" fill="#145F82"/><path d="M5465 1828 5501 1828 5501 1864 5465 1864Z" stroke="#145F82" stroke-width="3.4375" stroke-linejoin="round" stroke-miterlimit="10" fill="#145F82"/><path d="M5632 1920 5668 1920 5668 1956 5632 1956Z" stroke="#145F82" stroke-width="3.4375" stroke-linejoin="round" stroke-miterlimit="10" fill="#145F82"/><path d="M5800 1880 5836 1880 5836 1916 5800 1916Z" stroke="#145F82" stroke-width="3.4375" stroke-linejoin="round" stroke-miterlimit="10" fill="#145F82"/></g><g><path d="M3992.5 1802.5 3955.5 1765.5M3974 1765.5 3974 1802.5M3955.5 1802.5 3992.5 1765.5" stroke="#145F82" stroke-width="3.4375" stroke-linejoin="round" stroke-miterlimit="10" fill="#145F82"/><path d="M4160.5 1700.5 4123.5 1663.5M4142 1663.5 4142 1700.5M4123.5 1700.5 4160.5 1663.5" stroke="#145F82" stroke-width="3.4375" stroke-linejoin="round" stroke-miterlimit="10" fill="#145F82"/><path d="M4328.5 1847.5 4291.5 1810.5M4310 1810.5 4310 1847.5M4291.5 1847.5 4328.5 1810.5" stroke="#145F82" stroke-width="3.4375" stroke-linejoin="round" stroke-miterlimit="10" fill="#145F82"/><path d="M4495.5 1933.5 4458.5 1896.5M4477 1896.5 4477 1933.5M4458.5 1933.5 4495.5 1896.5" stroke="#145F82" stroke-width="3.4375" stroke-linejoin="round" stroke-miterlimit="10" fill="#145F82"/><path d="M4663.5 1880.5 4626.5 1843.5M4645 1843.5 4645 1880.5M4626.5 1880.5 4663.5 1843.5" stroke="#145F82" stroke-width="3.4375" stroke-linejoin="round" stroke-miterlimit="10" fill="#145F82"/><path d="M4830.5 1918.5 4793.5 1881.5M4812 1881.5 4812 1918.5M4793.5 1918.5 4830.5 1881.5" stroke="#145F82" stroke-width="3.4375" stroke-linejoin="round" stroke-miterlimit="10" fill="#145F82"/><path d="M4998.5 1831.5 4961.5 1794.5M4980 1794.5 4980 1831.5M4961.5 1831.5 4998.5 1794.5" stroke="#145F82" stroke-width="3.4375" stroke-linejoin="round" stroke-miterlimit="10" fill="#145F82"/><path d="M5166.5 1959.5 5129.5 1922.5M5148 1922.5 5148 1959.5M5129.5 1959.5 5166.5 1922.5" stroke="#145F82" stroke-width="3.4375" stroke-linejoin="round" stroke-miterlimit="10" fill="#145F82"/><path d="M5333.5 1942.5 5296.5 1905.5M5315 1905.5 5315 1942.5M5296.5 1942.5 5333.5 1905.5" stroke="#145F82" stroke-width="3.4375" stroke-linejoin="round" stroke-miterlimit="10" fill="#145F82"/><path d="M5501.5 1864.5 5464.5 1827.5M5483 1827.5 5483 1864.5M5464.5 1864.5 5501.5 1827.5" stroke="#145F82" stroke-width="3.4375" stroke-linejoin="round" stroke-miterlimit="10" fill="#145F82"/><path d="M5668.5 1956.5 5631.5 1919.5M5650 1919.5 5650 1956.5M5631.5 1956.5 5668.5 1919.5" stroke="#145F82" stroke-width="3.4375" stroke-linejoin="round" stroke-miterlimit="10" fill="#145F82"/><path d="M5836.5 1916.5 5799.5 1879.5M5818 1879.5 5818 1916.5M5799.5 1916.5 5836.5 1879.5" stroke="#145F82" stroke-width="3.4375" stroke-linejoin="round" stroke-miterlimit="10" fill="#145F82"/></g><g><path d="M3974 1824.85C4029.88 1786.98 4085.76 1723.46 4141.64 1711.23 4197.51 1699 4253.39 1740.82 4309.27 1751.47 4365.15 1762.12 4421.03 1753.84 4476.91 1775.14 4532.79 1796.44 4588.67 1867.85 4644.55 1879.29 4700.42 1890.73 4756.3 1863.91 4812.18 1843.79 4868.06 1823.67 4923.94 1748.31 4979.82 1758.57 5035.7 1768.83 5091.58 1881.66 5147.45 1905.33 5203.33 1929 5259.21 1926.24 5315.09 1900.6 5370.97 1874.95 5426.85 1749.1 5482.73 1751.47 5538.61 1753.84 5594.48 1907.7 5650.36 1914.8 5706.24 1921.9 5762.12 1834.32 5818 1794.08" stroke="#E87331" stroke-width="8.02083" stroke-linecap="round" stroke-linejoin="round" stroke-miterlimit="10" fill="none"/></g><g><path d="M3974 1806 3992 1842 3956 1842Z" stroke="#E87331" stroke-width="3.4375" stroke-linejoin="round" stroke-miterlimit="10" fill="#E87331"/><path d="M4142 1692 4160 1728 4124 1728Z" stroke="#E87331" stroke-width="3.4375" stroke-linejoin="round" stroke-miterlimit="10" fill="#E87331"/><path d="M4310 1733 4328 1769 4292 1769Z" stroke="#E87331" stroke-width="3.4375" stroke-linejoin="round" stroke-miterlimit="10" fill="#E87331"/><path d="M4477 1757 4495 1793 4459 1793Z" stroke="#E87331" stroke-width="3.4375" stroke-linejoin="round" stroke-miterlimit="10" fill="#E87331"/><path d="M4645 1861 4663 1897 4627 1897Z" stroke="#E87331" stroke-width="3.4375" stroke-linejoin="round" stroke-miterlimit="10" fill="#E87331"/><path d="M4812 1825 4830 1861 4794 1861Z" stroke="#E87331" stroke-width="3.4375" stroke-linejoin="round" stroke-miterlimit="10" fill="#E87331"/><path d="M4980 1740 4998 1776 4962 1776Z" stroke="#E87331" stroke-width="3.4375" stroke-linejoin="round" stroke-miterlimit="10" fill="#E87331"/><path d="M5148 1887 5166 1923 5130 1923Z" stroke="#E87331" stroke-width="3.4375" stroke-linejoin="round" stroke-miterlimit="10" fill="#E87331"/><path d="M5315 1882 5333 1918 5297 1918Z" stroke="#E87331" stroke-width="3.4375" stroke-linejoin="round" stroke-miterlimit="10" fill="#E87331"/><path d="M5483 1733 5501 1769 5465 1769Z" stroke="#E87331" stroke-width="3.4375" stroke-linejoin="round" stroke-miterlimit="10" fill="#E87331"/><path d="M5650 1897 5668 1933 5632 1933Z" stroke="#E87331" stroke-width="3.4375" stroke-linejoin="round" stroke-miterlimit="10" fill="#E87331"/><path d="M5818 1776 5836 1812 5800 1812Z" stroke="#E87331" stroke-width="3.4375" stroke-linejoin="round" stroke-miterlimit="10" fill="#E87331"/></g><g><path d="M3974 1541.99C4029.88 1469.91 4085.76 1330.5 4141.64 1325.75 4197.51 1321 4253.39 1463.97 4309.27 1513.48 4365.15 1562.98 4421.03 1595.86 4476.91 1622.79 4532.79 1649.72 4588.67 1665.96 4644.55 1675.07 4700.42 1684.18 4756.3 1705.96 4812.18 1677.44 4868.06 1648.93 4923.94 1486.94 4979.82 1503.97 5035.7 1521 5091.58 1737.25 5147.45 1779.62 5203.33 1822 5259.21 1799.82 5315.09 1758.24 5370.97 1716.65 5426.85 1525.36 5482.73 1530.11 5538.61 1534.87 5594.48 1770.91 5650.36 1786.75 5706.24 1802.59 5762.12 1679.03 5818 1625.16" stroke="#186C24" stroke-width="8.02083" stroke-linecap="round" stroke-linejoin="round" stroke-miterlimit="10" fill="none"/></g><g><path d="M3974.5 1523.5 3992.5 1541.5 3974.5 1559.5 3956.5 1541.5Z" stroke="#186C24" stroke-width="5.72917" stroke-linejoin="round" stroke-miterlimit="10" fill="#186C24"/><path d="M4141.5 1307.5 4159.5 1325.5 4141.5 1343.5 4123.5 1325.5Z" stroke="#186C24" stroke-width="5.72917" stroke-linejoin="round" stroke-miterlimit="10" fill="#186C24"/><path d="M4309.5 1495.5 4327.5 1513.5 4309.5 1531.5 4291.5 1513.5Z" stroke="#186C24" stroke-width="5.72917" stroke-linejoin="round" stroke-miterlimit="10" fill="#186C24"/><path d="M4477.5 1604.5 4495.5 1622.5 4477.5 1640.5 4459.5 1622.5Z" stroke="#186C24" stroke-width="5.72917" stroke-linejoin="round" stroke-miterlimit="10" fill="#186C24"/><path d="M4644.5 1656.5 4662.5 1674.5 4644.5 1692.5 4626.5 1674.5Z" stroke="#186C24" stroke-width="5.72917" stroke-linejoin="round" stroke-miterlimit="10" fill="#186C24"/><path d="M4812.5 1659.5 4830.5 1677.5 4812.5 1695.5 4794.5 1677.5Z" stroke="#186C24" stroke-width="5.72917" stroke-linejoin="round" stroke-miterlimit="10" fill="#186C24"/><path d="M4980.5 1485.5 4998.5 1503.5 4980.5 1521.5 4962.5 1503.5Z" stroke="#186C24" stroke-width="5.72917" stroke-linejoin="round" stroke-miterlimit="10" fill="#186C24"/><path d="M5147.5 1761.5 5165.5 1779.5 5147.5 1797.5 5129.5 1779.5Z" stroke="#186C24" stroke-width="5.72917" stroke-linejoin="round" stroke-miterlimit="10" fill="#186C24"/><path d="M5315.5 1739.5 5333.5 1757.5 5315.5 1775.5 5297.5 1757.5Z" stroke="#186C24" stroke-width="5.72917" stroke-linejoin="round" stroke-miterlimit="10" fill="#186C24"/><path d="M5482.5 1511.5 5500.5 1529.5 5482.5 1547.5 5464.5 1529.5Z" stroke="#186C24" stroke-width="5.72917" stroke-linejoin="round" stroke-miterlimit="10" fill="#186C24"/><path d="M5650.5 1768.5 5668.5 1786.5 5650.5 1804.5 5632.5 1786.5Z" stroke="#186C24" stroke-width="5.72917" stroke-linejoin="round" stroke-miterlimit="10" fill="#186C24"/><path d="M5818.5 1606.5 5836.5 1624.5 5818.5 1642.5 5800.5 1624.5Z" stroke="#186C24" stroke-width="5.72917" stroke-linejoin="round" stroke-miterlimit="10" fill="#186C24"/></g><g><path d="M3973.5 1784.5 3959.5 1727.5" stroke="#A6A6A6" stroke-width="3.4375" stroke-linejoin="round" stroke-miterlimit="10" fill="none"/></g><g><path d="M4141.5 1682.5 4151.5 1650.5" stroke="#A6A6A6" stroke-width="3.4375" stroke-linejoin="round" stroke-miterlimit="10" fill="none"/></g><g><path d="M4644.5 1862.5 4654.5 1801.5" stroke="#A6A6A6" stroke-width="3.4375" stroke-linejoin="round" stroke-miterlimit="10" fill="none"/></g><g><text fill="#163E64" font-family="Aptos Narrow,Aptos Narrow_MSFontService,sans-serif" font-weight="700" font-stretch="semi-condensed" font-size="50" transform="matrix(1 0 0 1 3921.01 1706)">119</text></g><g><text fill="#163E64" font-family="Aptos Narrow,Aptos Narrow_MSFontService,sans-serif" font-weight="700" font-stretch="semi-condensed" font-size="50" transform="matrix(1 0 0 1 4113.11 1629)">162</text></g><g><text fill="#163E64" font-family="Aptos Narrow,Aptos Narrow_MSFontService,sans-serif" font-weight="700" font-stretch="semi-condensed" font-size="50" transform="matrix(1 0 0 1 4270.77 1916)">100</text></g><g><text fill="#163E64" font-family="Aptos Narrow,Aptos Narrow_MSFontService,sans-serif" font-weight="700" font-stretch="semi-condensed" font-size="50" transform="matrix(1 0 0 1 4451.15 2001)">64</text></g><g><text fill="#163E64" font-family="Aptos Narrow,Aptos Narrow_MSFontService,sans-serif" font-weight="700" font-stretch="semi-condensed" font-size="50" transform="matrix(1 0 0 1 4629.33 1780)">86</text></g><g><text fill="#163E64" font-family="Aptos Narrow,Aptos Narrow_MSFontService,sans-serif" font-weight="700" font-stretch="semi-condensed" font-size="50" transform="matrix(1 0 0 1 4786.36 1987)">70</text></g><g><text fill="#163E64" font-family="Aptos Narrow,Aptos Narrow_MSFontService,sans-serif" font-weight="700" font-stretch="semi-condensed" font-size="50" transform="matrix(1 0 0 1 4941.19 1899)">107</text></g><g><text fill="#163E64" font-family="Aptos Narrow,Aptos Narrow_MSFontService,sans-serif" font-weight="700" font-stretch="semi-condensed" font-size="50" transform="matrix(1 0 0 1 5121.58 2027)">53</text></g><g><text fill="#163E64" font-family="Aptos Narrow,Aptos Narrow_MSFontService,sans-serif" font-weight="700" font-stretch="semi-condensed" font-size="50" transform="matrix(1 0 0 1 5289.18 2011)">60</text></g><g><text fill="#163E64" font-family="Aptos Narrow,Aptos Narrow_MSFontService,sans-serif" font-weight="700" font-stretch="semi-condensed" font-size="50" transform="matrix(1 0 0 1 5456.79 1932)">93</text></g><g><text fill="#163E64" font-family="Aptos Narrow,Aptos Narrow_MSFontService,sans-serif" font-weight="700" font-stretch="semi-condensed" font-size="50" transform="matrix(1 0 0 1 5624.39 2025)">54</text></g><g><text fill="#163E64" font-family="Aptos Narrow,Aptos Narrow_MSFontService,sans-serif" font-weight="700" font-stretch="semi-condensed" font-size="50" transform="matrix(1 0 0 1 5792 1984)">71</text></g><g><path d="M4141.5 1710.5 4151.5 1763.5" stroke="#A6A6A6" stroke-width="3.4375" stroke-linejoin="round" stroke-miterlimit="10" fill="none"/></g><g><path d="M4644.5 1879.5 4640.5 1907.5" stroke="#A6A6A6" stroke-width="3.4375" stroke-linejoin="round" stroke-miterlimit="10" fill="none"/></g><g><text fill="#BE5215" font-family="Aptos Narrow,Aptos Narrow_MSFontService,sans-serif" font-weight="700" font-stretch="semi-condensed" font-size="50" transform="matrix(1 0 0 1 3945.51 1899)">102</text></g><g><text fill="#BE5215" font-family="Aptos Narrow,Aptos Narrow_MSFontService,sans-serif" font-weight="700" font-stretch="semi-condensed" font-size="50" transform="matrix(1 0 0 1 4113.11 1818)">150</text></g><g><text fill="#BE5215" font-family="Aptos Narrow,Aptos Narrow_MSFontService,sans-serif" font-weight="700" font-stretch="semi-condensed" font-size="50" transform="matrix(1 0 0 1 4270.77 1698)">133</text></g><g><text fill="#BE5215" font-family="Aptos Narrow,Aptos Narrow_MSFontService,sans-serif" font-weight="700" font-stretch="semi-condensed" font-size="50" transform="matrix(1 0 0 1 4438.38 1722)">123</text></g><g><text fill="#BE5215" font-family="Aptos Narrow,Aptos Narrow_MSFontService,sans-serif" font-weight="700" font-stretch="semi-condensed" font-size="50" transform="matrix(1 0 0 1 4614.78 1962)">79</text></g><g><text fill="#BE5215" font-family="Aptos Narrow,Aptos Narrow_MSFontService,sans-serif" font-weight="700" font-stretch="semi-condensed" font-size="50" transform="matrix(1 0 0 1 4786.36 1790)">94</text></g><g><text fill="#BE5215" font-family="Aptos Narrow,Aptos Narrow_MSFontService,sans-serif" font-weight="700" font-stretch="semi-condensed" font-size="50" transform="matrix(1 0 0 1 4941.19 1705)">130</text></g><g><text fill="#BE5215" font-family="Aptos Narrow,Aptos Narrow_MSFontService,sans-serif" font-weight="700" font-stretch="semi-condensed" font-size="50" transform="matrix(1 0 0 1 5121.58 1852)">68</text></g><g><text fill="#BE5215" font-family="Aptos Narrow,Aptos Narrow_MSFontService,sans-serif" font-weight="700" font-stretch="semi-condensed" font-size="50" transform="matrix(1 0 0 1 5289.18 1847)">70</text></g><g><text fill="#BE5215" font-family="Aptos Narrow,Aptos Narrow_MSFontService,sans-serif" font-weight="700" font-stretch="semi-condensed" font-size="50" transform="matrix(1 0 0 1 5444.01 1698)">133</text></g><g><text fill="#BE5215" font-family="Aptos Narrow,Aptos Narrow_MSFontService,sans-serif" font-weight="700" font-stretch="semi-condensed" font-size="50" transform="matrix(1 0 0 1 5624.39 1862)">64</text></g><g><text fill="#BE5215" font-family="Aptos Narrow,Aptos Narrow_MSFontService,sans-serif" font-weight="700" font-stretch="semi-condensed" font-size="50" transform="matrix(1 0 0 1 5779.22 1741)">115</text></g><g><text fill="#186C24" font-family="Aptos Narrow,Aptos Narrow_MSFontService,sans-serif" font-weight="700" font-stretch="semi-condensed" font-size="50" transform="matrix(1 0 0 1 3935.56 1489)">221</text></g><g><text fill="#186C24" font-family="Aptos Narrow,Aptos Narrow_MSFontService,sans-serif" font-weight="700" font-stretch="semi-condensed" font-size="50" transform="matrix(1 0 0 1 4103.16 1273)">312</text></g><g><text fill="#186C24" font-family="Aptos Narrow,Aptos Narrow_MSFontService,sans-serif" font-weight="700" font-stretch="semi-condensed" font-size="50" transform="matrix(1 0 0 1 4270.77 1460)">233</text></g><g><text fill="#186C24" font-family="Aptos Narrow,Aptos Narrow_MSFontService,sans-serif" font-weight="700" font-stretch="semi-condensed" font-size="50" transform="matrix(1 0 0 1 4438.38 1570)">187</text></g><g><text fill="#186C24" font-family="Aptos Narrow,Aptos Narrow_MSFontService,sans-serif" font-weight="700" font-stretch="semi-condensed" font-size="50" transform="matrix(1 0 0 1 4605.98 1622)">165</text></g><g><text fill="#186C24" font-family="Aptos Narrow,Aptos Narrow_MSFontService,sans-serif" font-weight="700" font-stretch="semi-condensed" font-size="50" transform="matrix(1 0 0 1 4773.59 1624)">164</text></g><g><text fill="#186C24" font-family="Aptos Narrow,Aptos Narrow_MSFontService,sans-serif" font-weight="700" font-stretch="semi-condensed" font-size="50" transform="matrix(1 0 0 1 4941.19 1451)">237</text></g><g><text fill="#186C24" font-family="Aptos Narrow,Aptos Narrow_MSFontService,sans-serif" font-weight="700" font-stretch="semi-condensed" font-size="50" transform="matrix(1 0 0 1 5108.8 1726)">121</text></g><g><text fill="#186C24" font-family="Aptos Narrow,Aptos Narrow_MSFontService,sans-serif" font-weight="700" font-stretch="semi-condensed" font-size="50" transform="matrix(1 0 0 1 5276.41 1705)">130</text></g><g><text fill="#186C24" font-family="Aptos Narrow,Aptos Narrow_MSFontService,sans-serif" font-weight="700" font-stretch="semi-condensed" font-size="50" transform="matrix(1 0 0 1 5444.01 1477)">226</text></g><g><text fill="#186C24" font-family="Aptos Narrow,Aptos Narrow_MSFontService,sans-serif" font-weight="700" font-stretch="semi-condensed" font-size="50" transform="matrix(1 0 0 1 5611.62 1733)">118</text></g><g><text fill="#186C24" font-family="Aptos Narrow,Aptos Narrow_MSFontService,sans-serif" font-weight="700" font-stretch="semi-condensed" font-size="50" transform="matrix(1 0 0 1 5779.22 1572)">186</text></g><g><text font-family="Aptos Narrow,Aptos Narrow_MSFontService,sans-serif" font-weight="700" font-stretch="semi-condensed" font-size="55" transform="matrix(1 0 0 1 3957.2 2154)">1</text></g><g><text font-family="Aptos Narrow,Aptos Narrow_MSFontService,sans-serif" font-weight="700" font-stretch="semi-condensed" font-size="55" transform="matrix(1 0 0 1 4124.81 2154)">2</text></g><g><text font-family="Aptos Narrow,Aptos Narrow_MSFontService,sans-serif" font-weight="700" font-stretch="semi-condensed" font-size="55" transform="matrix(1 0 0 1 4292.42 2154)">3</text></g><g><text font-family="Aptos Narrow,Aptos Narrow_MSFontService,sans-serif" font-weight="700" font-stretch="semi-condensed" font-size="55" transform="matrix(1 0 0 1 4460.02 2154)">4</text></g><g><text font-family="Aptos Narrow,Aptos Narrow_MSFontService,sans-serif" font-weight="700" font-stretch="semi-condensed" font-size="55" transform="matrix(1 0 0 1 4627.63 2154)">5</text></g><g><text font-family="Aptos Narrow,Aptos Narrow_MSFontService,sans-serif" font-weight="700" font-stretch="semi-condensed" font-size="55" transform="matrix(1 0 0 1 4795.23 2154)">6</text></g><g><text font-family="Aptos Narrow,Aptos Narrow_MSFontService,sans-serif" font-weight="700" font-stretch="semi-condensed" font-size="55" transform="matrix(1 0 0 1 4962.84 2154)">7</text></g><g><text font-family="Aptos Narrow,Aptos Narrow_MSFontService,sans-serif" font-weight="700" font-stretch="semi-condensed" font-size="55" transform="matrix(1 0 0 1 5130.44 2154)">8</text></g><g><text font-family="Aptos Narrow,Aptos Narrow_MSFontService,sans-serif" font-weight="700" font-stretch="semi-condensed" font-size="55" transform="matrix(1 0 0 1 5298.05 2154)">9</text></g><g><text font-family="Aptos Narrow,Aptos Narrow_MSFontService,sans-serif" font-weight="700" font-stretch="semi-condensed" font-size="55" transform="matrix(1 0 0 1 5448.97 2154)">10</text></g><g><text font-family="Aptos Narrow,Aptos Narrow_MSFontService,sans-serif" font-weight="700" font-stretch="semi-condensed" font-size="55" transform="matrix(1 0 0 1 5616.58 2154)">11</text></g><g><text font-family="Aptos Narrow,Aptos Narrow_MSFontService,sans-serif" font-weight="700" font-stretch="semi-condensed" font-size="55" transform="matrix(1 0 0 1 5784.18 2154)">12</text></g><g><text font-family="Aptos Narrow,Aptos Narrow_MSFontService,sans-serif" font-weight="700" font-stretch="semi-condensed" font-size="55" transform="matrix(6.12323e-17 -1 1 6.12323e-17 3857.14 1762)">ERROR RATE</text></g><g><text font-family="Aptos Narrow,Aptos Narrow_MSFontService,sans-serif" font-weight="700" font-stretch="semi-condensed" font-size="55" transform="matrix(1 0 0 1 4664.13 2230)">PARTICIPANTS</text></g><g><path d="M4307 1254 4395 1254" stroke="#145F82" stroke-width="8.02083" stroke-linecap="round" stroke-linejoin="round" stroke-miterlimit="10" stroke-opacity="0.968627" fill="none" fill-rule="evenodd"/></g><g><path d="M4337.64 1241.54 4363.64 1241.54 4363.64 1267.54 4337.64 1267.54Z" stroke="#145F82" stroke-width="3.4375" stroke-linejoin="round" stroke-miterlimit="10" fill="#145F82"/></g><g><path d="M4363.5 1267.5 4336.5 1240.5M4350.64 1240.5 4350.64 1267.5M4336.5 1267.5 4363.5 1240.5" stroke="#145F82" stroke-width="3.4375" stroke-linejoin="round" stroke-miterlimit="10" fill="#145F82"/></g><g><text font-family="Aptos Narrow,Aptos Narrow_MSFontService,sans-serif" font-weight="700" font-stretch="semi-condensed" font-size="50" transform="matrix(1 0 0 1 4404.24 1268)">C Erorrs</text></g><g><path d="M4633 1254 4721 1254" stroke="#E87331" stroke-width="8.02083" stroke-linecap="round" stroke-linejoin="round" stroke-miterlimit="10" fill="none" fill-rule="evenodd"/></g><g><path d="M4677.5 1241.5 4690.5 1267.5 4664.5 1267.5Z" stroke="#E87331" stroke-width="3.4375" stroke-linejoin="round" stroke-miterlimit="10" fill="#E87331"/></g><g><text font-family="Aptos Narrow,Aptos Narrow_MSFontService,sans-serif" font-weight="700" font-stretch="semi-condensed" font-size="50" transform="matrix(1 0 0 1 4730.55 1268)">UFCS Errors</text></g><g><path d="M5042 1254 5130 1254" stroke="#186C24" stroke-width="8.02083" stroke-linecap="round" stroke-linejoin="round" stroke-miterlimit="10" fill="none" fill-rule="evenodd"/></g><g><path d="M5086 1241 5099 1254 5086 1267 5073 1254Z" stroke="#186C24" stroke-width="5.72917" stroke-linejoin="round" stroke-miterlimit="10" fill="#186C24"/></g><g><text font-family="Aptos Narrow,Aptos Narrow_MSFontService,sans-serif" font-weight="700" font-stretch="semi-condensed" font-size="50" transform="matrix(1 0 0 1 5139.38 1268)">Total Errors</text></g></g></svg>